0
SECTION
2
HEADER
9
$INSUNITS
70
1
9
$ACADVER
1
AC1014
9
$HANDSEED
5
FFFF
0
ENDSEC
0
SECTION
2
TABLES
0
TABLE
2
VPORT
5
8
100
AcDbSymbolTable
0
ENDTAB
0
TABLE
2
LTYPE
5
5
100
AcDbSymbolTable
0
LTYPE
5
14
100
AcDbSymbolTableRecord
100
AcDbLinetypeTableRecord
2
BYBLOCK
70
0
0
LTYPE
5
15
100
AcDbSymbolTableRecord
100
AcDbLinetypeTableRecord
2
BYLAYER
70
0
0
ENDTAB
0
TABLE
2
LAYER
5
2
100
AcDbSymbolTable
70
2
0
LAYER
5
50
100
AcDbSymbolTableRecord
100
AcDbLayerTableRecord
2
0
70
0
6
CONTINUOUS
0
ENDTAB
0
TABLE
2
STYLE
5
3
100
AcDbSymbolTable
70
1
0
STYLE
5
11
100
AcDbSymbolTableRecord
100
AcDbTextStyleTableRecord
2
STANDARD
70
0
0
ENDTAB
0
TABLE
2
VIEW
5
6
100
AcDbSymbolTable
70
0
0
ENDTAB
0
TABLE
2
UCS
5
7
100
AcDbSymbolTable
70
0
0
ENDTAB
0
TABLE
2
APPID
5
9
100
AcDbSymbolTable
70
2
0
APPID
5
12
100
AcDbSymbolTableRecord
100
AcDbRegAppTableRecord
2
ACAD
70
0
0
ENDTAB
0
TABLE
2
DIMSTYLE
5
A
100
AcDbSymbolTable
70
1
0
ENDTAB
0
TABLE
2
BLOCK_RECORD
5
1
100
AcDbSymbolTable
70
1
0
BLOCK_RECORD
5
1F
100
AcDbSymbolTableRecord
100
AcDbBlockTableRecord
2
*MODEL_SPACE
0
BLOCK_RECORD
5
1B
100
AcDbSymbolTableRecord
100
AcDbBlockTableRecord
2
*PAPER_SPACE
0
ENDTAB
0
ENDSEC
0
SECTION
2
BLOCKS
0
BLOCK
5
20
100
AcDbEntity
100
AcDbBlockBegin
2
*MODEL_SPACE
0
ENDBLK
5
21
100
AcDbEntity
100
AcDbBlockEnd
0
BLOCK
5
1C
100
AcDbEntity
100
AcDbBlockBegin
2
*PAPER_SPACE
0
ENDBLK
5
1D
100
AcDbEntity
100
AcDbBlockEnd
0
ENDSEC
0
SECTION
2
ENTITIES
0
LINE
5
100
100
AcDbEntity
8
0
100
AcDbLine
10
-2.626771814241184
20
-2.2078741253830314
30
0
11
-2.6724409869336703
21
-2.2480315110814852
31
0
0
LINE
5
101
100
AcDbEntity
8
0
100
AcDbLine
10
-1.8070866742472009
20
-1.503937075457235
30
0
11
-2.626771814241184
21
-2.2078741253830314
31
0
0
LINE
5
102
100
AcDbEntity
8
0
100
AcDbLine
10
-2.6724409869336703
20
-2.2480315110814852
30
0
11
-2.6396655660914621
21
-2.2740159447737565
31
0
0
LINE
5
103
100
AcDbEntity
8
0
100
AcDbLine
10
-1.3692914031621977
20
-1.1283465257779819
30
0
11
-1.8070866742472009
21
-1.503937075457235
31
0
0
LINE
5
104
100
AcDbEntity
8
0
100
AcDbLine
10
-2.6393702649694726
20
-2.2740159447737565
30
0
11
-2.6396655660914621
21
-2.2740159447737565
31
0
0
LINE
5
105
100
AcDbEntity
8
0
100
AcDbLine
10
-2.6393702649694726
20
-2.2740159447737565
30
0
11
-2.1984252404040237
21
-1.9267716745691974
31
0
0
LINE
5
106
100
AcDbEntity
8
0
100
AcDbLine
10
-0.95511815679354928
20
-0.77244099669569111
30
0
11
-1.3692914031621977
21
-1.1283465257779819
31
0
0
LINE
5
107
100
AcDbEntity
8
0
100
AcDbLine
10
-1.7692915097934991
20
-1.5881891325702817
30
0
11
-2.1984252404040237
21
-1.9267716745691974
31
0
0
LINE
5
108
100
AcDbEntity
8
0
100
AcDbLine
10
-1.3259843578488806
20
-1.2393701733566644
30
0
11
-1.7692915097934991
21
-1.5881891325702817
31
0
0
LINE
5
109
100
AcDbEntity
8
0
100
AcDbLine
10
-0.69922509097690544
20
-0.55374823612395496
30
0
11
-0.95511815679354928
21
-0.77244099669569111
31
0
0
LINE
5
110
100
AcDbEntity
8
0
100
AcDbLine
10
-0.89527565663255093
20
-0.9000000052564725
30
0
11
-1.3259843578488806
21
-1.2393701733566644
31
0
0
LINE
5
111
100
AcDbEntity
8
0
100
AcDbLine
10
-0.39527561720900645
20
-0.50551182641757753
30
0
11
-0.89527565663255093
21
-0.9000000052564725
31
0
0
LINE
5
112
100
AcDbEntity
8
0
100
AcDbLine
10
-0.60692505058623569
20
-0.47466294673379689
30
0
11
-0.69922509097690544
21
-0.55374823612395496
31
0
0
LINE
5
113
100
AcDbEntity
8
0
100
AcDbLine
10
-0.44881893893865143
20
-0.40236223401047111
30
0
11
-0.41574802924328896
21
-0.41574802924328896
31
0
0
LINE
5
114
100
AcDbEntity
8
0
100
AcDbLine
10
-0.60692505058623569
20
-0.47466294673379689
30
0
11
-0.54990156429020431
21
-0.39606300864632671
31
0
0
LINE
5
115
100
AcDbEntity
8
0
100
AcDbLine
10
-0.34015748913832533
20
-0.503937043542937
30
0
11
-0.39527561720900645
21
-0.50551182641757753
31
0
0
LINE
5
116
100
AcDbEntity
8
0
100
AcDbLine
10
-0.34015748913832533
20
-0.503937043542937
30
0
11
-0.29242127899109843
21
-0.51968506002050685
31
0
0
LINE
5
117
100
AcDbEntity
8
0
100
AcDbLine
10
-0.41574802924328896
20
-0.41574802924328896
30
0
11
-0.35590552908229073
21
-0.41732285905072064
31
0
0
LINE
5
118
100
AcDbEntity
8
0
100
AcDbLine
10
-0.44510737763526498
20
-0.39679490127313499
30
0
11
-0.44881893893865143
21
-0.40236223401047111
31
0
0
LINE
5
119
100
AcDbEntity
8
0
100
AcDbLine
10
-0.54881891866368571
20
-0.37007876268522005
30
0
11
-0.54990156429020431
21
-0.39606300864632671
31
0
0
LINE
5
120
100
AcDbEntity
8
0
100
AcDbLine
10
-0.29212600133550448
20
-0.51968506002050685
30
0
11
-0.29242127899109843
21
-0.51968506002050685
31
0
0
LINE
5
121
100
AcDbEntity
8
0
100
AcDbLine
10
-0.31126799899140095
20
-0.45287539460785114
30
0
11
-0.28976380355714809
21
-0.47007874241025427
31
0
0
LINE
5
122
100
AcDbEntity
8
0
100
AcDbLine
10
-0.2330708691454309
20
-0.49527559693404066
30
0
11
-0.23577952674035166
21
-0.50182674085032397
31
0
0
LINE
5
123
100
AcDbEntity
8
0
100
AcDbLine
10
-0.35590552908229073
20
-0.41732285905072064
30
0
11
-0.33070867455850433
21
-0.40944885081193577
31
0
0
LINE
5
124
100
AcDbEntity
8
0
100
AcDbLine
10
-0.48759781228113591
20
-0.33216055108114312
30
0
11
-0.53385829362343606
21
-0.29763781179593302
31
0
0
LINE
5
125
100
AcDbEntity
8
0
100
AcDbLine
10
-0.54881891866368571
20
-0.37007876268522005
30
0
11
-0.57559055606211262
21
-0.32677167043911187
31
0
0
LINE
5
126
100
AcDbEntity
8
0
100
AcDbLine
10
-0.23700789673121894
20
-0.50551182641757753
30
0
11
-0.29212600133550448
21
-0.51968506002050685
31
0
0
LINE
5
127
100
AcDbEntity
8
0
100
AcDbLine
10
-0.2330708691454309
20
-0.49527559693404066
30
0
11
-0.2488189090893963
21
-0.47086618078036568
31
0
0
LINE
5
128
100
AcDbEntity
8
0
100
AcDbLine
10
-0.28976380355714809
20
-0.47007874241025427
30
0
11
-0.2488189090893963
21
-0.47086618078036568
31
0
0
LINE
5
129
100
AcDbEntity
8
0
100
AcDbLine
10
-0.33070867455850433
20
-0.40944885081193577
30
0
11
-0.31023623905782621
21
-0.38740158550382597
31
0
0
LINE
5
130
100
AcDbEntity
8
0
100
AcDbLine
10
-0.48759781228113591
20
-0.33216055108114312
30
0
11
-0.48533466857249341
21
-0.31496063461453894
31
0
0
LINE
5
131
100
AcDbEntity
8
0
100
AcDbLine
10
-0.42519686728950556
20
-0.34330710182039753
30
0
11
-0.43622048821036269
21
-0.32992128312118407
31
0
0
LINE
5
132
100
AcDbEntity
8
0
100
AcDbLine
10
-0.43622048821036269
20
-0.32992128312118407
30
0
11
-0.43228348409097023
21
-0.29921261813696909
31
0
0
LINE
5
133
100
AcDbEntity
8
0
100
AcDbLine
10
-0.39055119818589817
20
-0.34488190816143366
30
0
11
-0.42519686728950556
21
-0.34330710182039753
31
0
0
LINE
5
134
100
AcDbEntity
8
0
100
AcDbLine
10
-0.53385829362343606
20
-0.29763781179593302
30
0
11
-0.53385829362343606
21
-0.25275591320878876
31
0
0
LINE
5
135
100
AcDbEntity
8
0
100
AcDbLine
10
-0.57559055606211262
20
-0.32677167043911187
30
0
11
-0.57352363593935018
21
-0.26929134459007442
31
0
0
LINE
5
136
100
AcDbEntity
8
0
100
AcDbLine
10
-0.38661419406650571
20
-0.39527561720900645
30
0
11
-0.44510737763526498
21
-0.39679490127313499
31
0
0
LINE
5
137
100
AcDbEntity
8
0
100
AcDbLine
10
-0.23577952674035166
20
-0.50182674085032397
30
0
11
-0.23700789673121894
21
-0.50551182641757753
31
0
0
LINE
5
138
100
AcDbEntity
8
0
100
AcDbLine
10
-0.29448819911386082
20
-0.43385826696561075
30
0
11
-0.31126799899140095
21
-0.45287539460785114
31
0
0
LINE
5
139
100
AcDbEntity
8
0
100
AcDbLine
10
-0.25275591320878876
20
-0.41732285905072064
30
0
11
-0.26377953412964583
21
-0.39133858962321844
31
0
0
LINE
5
140
100
AcDbEntity
8
0
100
AcDbLine
10
-0.31023623905782621
20
-0.38740158550382597
30
0
11
-0.26377953412964583
21
-0.39133858962321844
31
0
0
LINE
5
141
100
AcDbEntity
8
0
100
AcDbLine
10
-0.25275591320878876
20
-0.41732285905072064
30
0
11
-0.25389262046683325
21
-0.41964913986095437
31
0
0
LINE
5
142
100
AcDbEntity
8
0
100
AcDbLine
10
-0.25354332811250457
20
-0.42047247173279284
30
0
11
-0.25389262046683325
21
-0.41964913986095437
31
0
0
LINE
5
143
100
AcDbEntity
8
0
100
AcDbLine
10
-0.48533466857249341
20
-0.31496063461453894
30
0
11
-0.43494095952492057
21
-0.2582677236692173
31
0
0
LINE
5
144
100
AcDbEntity
8
0
100
AcDbLine
10
-0.4275590885342575
20
-0.2519685217714685
30
0
11
-0.43494095952492057
21
-0.2582677236692173
31
0
0
LINE
5
145
100
AcDbEntity
8
0
100
AcDbLine
10
-0.43228348409097023
20
-0.29921261813696909
30
0
11
-0.40314962544779137
21
-0.26692914681171803
31
0
0
LINE
5
146
100
AcDbEntity
8
0
100
AcDbLine
10
-0.34409449325771779
20
-0.33385828724057653
30
0
11
-0.39055119818589817
21
-0.34488190816143366
31
0
0
LINE
5
147
100
AcDbEntity
8
0
100
AcDbLine
10
-0.53385829362343606
20
-0.25275591320878876
30
0
11
-0.54566930598161345
21
-0.244094490066288
31
0
0
LINE
5
148
100
AcDbEntity
8
0
100
AcDbLine
10
-0.54566930598161345
20
-0.244094490066288
30
0
11
-0.55433075259050979
21
-0.25039371543043237
31
0
0
LINE
5
149
100
AcDbEntity
8
0
100
AcDbLine
10
-0.55433075259050979
20
-0.25039371543043237
30
0
11
-0.57352363593935018
21
-0.26929134459007442
31
0
0
LINE
5
150
100
AcDbEntity
8
0
100
AcDbLine
10
-0.31338585173989841
20
-0.37716537948668472
30
0
11
-0.38661419406650571
21
-0.39527561720900645
31
0
0
LINE
5
151
100
AcDbEntity
8
0
100
AcDbLine
10
-0.25669291732818122
20
-0.42598425872682583
30
0
11
-0.29448819911386082
21
-0.43385826696561075
31
0
0
LINE
5
152
100
AcDbEntity
8
0
100
AcDbLine
10
-0.25354332811250457
20
-0.42047247173279284
30
0
11
-0.25669291732818122
21
-0.42598425872682583
31
0
0
LINE
5
153
100
AcDbEntity
8
0
100
AcDbLine
10
-0.40314962544779137
20
-0.26692914681171803
30
0
11
-0.4110236336865763
21
-0.24173229228793164
31
0
0
LINE
5
154
100
AcDbEntity
8
0
100
AcDbLine
10
-0.4275590885342575
20
-0.2519685217714685
30
0
11
-0.4110236336865763
21
-0.24173229228793164
31
0
0
LINE
5
155
100
AcDbEntity
8
0
100
AcDbLine
10
-0.25118110686775263
20
-0.2362204818275031
30
0
11
-0.34409449325771779
21
-0.33385828724057653
31
0
0
LINE
5
156
100
AcDbEntity
8
0
100
AcDbLine
10
-0.21023623586639642
20
-0.20787401462164448
30
0
11
-0.25118110686775263
21
-0.2362204818275031
31
0
0
LINE
5
157
100
AcDbEntity
8
0
100
AcDbLine
10
-0.18425197817209196
20
-0.20944882096268058
30
0
11
-0.21023623586639642
21
-0.20787401462164448
31
0
0
LINE
5
158
100
AcDbEntity
8
0
100
AcDbLine
10
-0.22598425234396624
20
-0.32677167043911187
30
0
11
-0.31338585173989841
21
-0.37716537948668472
31
0
0
LINE
5
159
100
AcDbEntity
8
0
100
AcDbLine
10
-0.13937007958494771
20
-0.2582677236692173
30
0
11
-0.15494859090095628
21
-0.24906225889469588
31
0
0
LINE
5
160
100
AcDbEntity
8
0
100
AcDbLine
10
-0.10708661999289444
20
-0.17165355091019877
30
0
11
-0.12992126500512671
21
-0.16299213950089581
31
0
0
LINE
5
161
100
AcDbEntity
8
0
100
AcDbLine
10
-0.12992126500512671
20
-0.16299213950089581
30
0
11
-0.18425197817209196
21
-0.20944882096268058
31
0
0
LINE
5
162
100
AcDbEntity
8
0
100
AcDbLine
10
-0.17559055502959123
20
-0.32677167043911187
30
0
11
-0.22598425234396624
21
-0.32677167043911187
31
0
0
LINE
5
163
100
AcDbEntity
8
0
100
AcDbLine
10
-0.11496063996487714
20
-0.24645671131103994
30
0
11
-0.13937007958494771
21
-0.2582677236692173
31
0
0
LINE
5
164
100
AcDbEntity
8
0
100
AcDbLine
10
-0.10708661999289444
20
-0.17165355091019877
30
0
11
-0.10796665257819738
21
-0.17350624411530649
31
0
0
LINE
5
165
100
AcDbEntity
8
0
100
AcDbLine
10
-0.13070866817564475
20
-0.30157481591532548
30
0
11
-0.17559055502959123
21
-0.32677167043911187
31
0
0
LINE
5
166
100
AcDbEntity
8
0
100
AcDbLine
10
-0.15494859090095628
20
-0.24906225889469588
30
0
11
-0.10866142633393054
21
-0.17559055502959123
31
0
0
LINE
5
167
100
AcDbEntity
8
0
100
AcDbLine
10
-0.10796665257819738
20
-0.17350624411530649
30
0
11
-0.10866142633393054
21
-0.17559055502959123
31
0
0
LINE
5
168
100
AcDbEntity
8
0
100
AcDbLine
10
-0.087401581796135483
20
-0.22047244188353771
30
0
11
-0.11496063996487714
21
-0.24645671131103994
31
0
0
LINE
5
169
100
AcDbEntity
8
0
100
AcDbLine
10
-0.10261819207102689
20
-0.29787870440678782
30
0
11
-0.10551181365185834
21
-0.3125984368361826
31
0
0
LINE
5
170
100
AcDbEntity
8
0
100
AcDbLine
10
-0.10261819207102689
20
-0.29787870440678782
30
0
11
-0.13070866817564475
21
-0.30157481591532548
31
0
0
LINE
5
171
100
AcDbEntity
8
0
100
AcDbLine
10
-0.070078741377732873
20
-0.18110236549001976
30
0
11
-0.072077512137110583
21
-0.18582673126256566
31
0
0
LINE
5
172
100
AcDbEntity
8
0
100
AcDbLine
10
-0.069291344073813724
20
-0.17952757088218146
30
0
11
-0.06998625173883874
21
-0.18109866592458576
31
0
0
LINE
5
173
100
AcDbEntity
8
0
100
AcDbLine
10
-0.072077512137110583
20
-0.18582673126256566
30
0
11
-0.087401581796135483
21
-0.22047244188353771
31
0
0
LINE
5
174
100
AcDbEntity
8
0
100
AcDbLine
10
-0.10551181365185834
20
-0.3125984368361826
30
0
11
-0.17795276454114536
21
-0.35511813764497047
31
0
0
LINE
5
175
100
AcDbEntity
8
0
100
AcDbLine
10
-0.06998625173883874
20
-0.18109866592458576
30
0
11
-0.070078741377732873
21
-0.18110236549001976
31
0
0
LINE
5
176
100
AcDbEntity
8
0
100
AcDbLine
10
-0.030708662050915513
20
-0.17795276454114536
30
0
11
-0.069291344073813724
21
-0.17952757088218146
31
0
0
LINE
5
177
100
AcDbEntity
8
0
100
AcDbLine
10
-0.037293846956244686
20
-0.24881499971331586
30
0
11
-0.025196851590486961
21
-0.26771653824903829
31
0
0
LINE
5
178
100
AcDbEntity
8
0
100
AcDbLine
10
-0.025196851590486961
20
-0.26771653824903829
30
0
11
-0.025300023649275114
21
-0.26991755310238918
31
0
0
LINE
5
179
100
AcDbEntity
8
0
100
AcDbLine
10
-0.17795276454114536
20
-0.35511813764497047
30
0
11
-0.18667961363891433
21
-0.37631191579452095
31
0
0
LINE
5
180
100
AcDbEntity
8
0
100
AcDbLine
10
-0.035433072274125461
20
-0.22834647358871818
30
0
11
-0.037293846956244686
21
-0.24881499971331586
31
0
0
LINE
5
181
100
AcDbEntity
8
0
100
AcDbLine
10
-0.025300023649275114
20
-0.26991755310238918
30
0
11
-0.025196851590486961
21
-0.27007875949379023
31
0
0
LINE
5
182
100
AcDbEntity
8
0
100
AcDbLine
10
-0.025196851590486961
20
-0.27401576361318269
30
0
11
-0.040157482497335417
21
-0.31023623905782621
31
0
0
LINE
5
183
100
AcDbEntity
8
0
100
AcDbLine
10
-0.025196851590486961
20
-0.27007875949379023
30
0
11
-0.025196851590486961
21
-0.27401576361318269
31
0
0
LINE
5
184
100
AcDbEntity
8
0
100
AcDbLine
10
-0.078740158653634734
20
-0.34960632718454193
30
0
11
-0.040157482497335417
21
-0.31023623905782621
31
0
0
LINE
5
185
100
AcDbEntity
8
0
100
AcDbLine
10
0.0060121958729293283
20
-0.26413155176518582
30
0
11
-0.017209927552461906
21
-0.22068369006808003
31
0
0
LINE
5
186
100
AcDbEntity
8
0
100
AcDbLine
10
0.052755906825929171
20
-0.25905513857293316
30
0
11
0.052048658526473071
21
-0.25782561441415691
31
0
0
LINE
5
187
100
AcDbEntity
8
0
100
AcDbLine
10
0.001574803224405435
20
-0.16850394996132437
30
0
11
-0.030708662050915513
21
-0.17795276454114536
31
0
0
LINE
5
188
100
AcDbEntity
8
0
100
AcDbLine
10
0.05196850365541112
20
-0.25748033223189704
30
0
11
0.001574803224405435
21
-0.16850394996132437
31
0
0
LINE
5
189
100
AcDbEntity
8
0
100
AcDbLine
10
-0.016704819059178477
20
-0.22162873215386175
30
0
11
-0.035433072274125461
21
-0.22834647358871818
31
0
0
LINE
5
190
100
AcDbEntity
8
0
100
AcDbLine
10
-0.14305791685946165
20
-0.38533839791996072
30
0
11
-0.078740158653634734
21
-0.34960632718454193
31
0
0
LINE
5
191
100
AcDbEntity
8
0
100
AcDbLine
10
-0.14305791685946165
20
-0.38533839791996072
30
0
11
-0.13543307546555525
21
-0.39448822577168619
31
0
0
LINE
5
192
100
AcDbEntity
8
0
100
AcDbLine
10
-0.1951538099903217
20
-0.39557144617342299
30
0
11
-0.20157481272389569
21
-0.39842522989107865
31
0
0
LINE
5
193
100
AcDbEntity
8
0
100
AcDbLine
10
-0.18667961363891433
20
-0.37631191579452095
30
0
11
-0.1951538099903217
21
-0.39557144617342299
31
0
0
LINE
5
194
100
AcDbEntity
8
0
100
AcDbLine
10
0.052755906825929171
20
-0.25905513857293316
30
0
11
0.053543309996447221
21
-0.26299214269232563
31
0
0
LINE
5
195
100
AcDbEntity
8
0
100
AcDbLine
10
0.05196850365541112
20
-0.25748033223189704
30
0
11
0.052048658526473071
21
-0.25782561441415691
31
0
0
LINE
5
196
100
AcDbEntity
8
0
100
AcDbLine
10
0.0023622047449425448
20
-0.30866143271679014
30
0
11
0.0060121958729293283
21
-0.26413155176518582
31
0
0
LINE
5
197
100
AcDbEntity
8
0
100
AcDbLine
10
-0.13543307546555525
20
-0.39448822577168619
30
0
11
-0.1157480314021974
21
-0.38425199628814932
31
0
0
LINE
5
198
100
AcDbEntity
8
0
100
AcDbLine
10
-0.096062999072037331
20
-0.38740158550382597
30
0
11
-0.1157480314021974
21
-0.38425199628814932
31
0
0
LINE
5
199
100
AcDbEntity
8
0
100
AcDbLine
10
-0.20157481272389569
20
-0.39842522989107865
30
0
11
-0.20834878046443783
21
-0.37403891372430076
31
0
0
LINE
5
200
100
AcDbEntity
8
0
100
AcDbLine
10
-0.15748031730726947
20
-0.44015749232975515
30
0
11
-0.12519685771521619
21
-0.43228348409097023
31
0
0
LINE
5
201
100
AcDbEntity
8
0
100
AcDbLine
10
0.070078741377732873
20
-0.37952757726504105
30
0
11
0.053543309996447221
21
-0.26299214269232563
31
0
0
LINE
5
202
100
AcDbEntity
8
0
100
AcDbLine
10
-0.037795275919080717
20
-0.35590552908229073
30
0
11
0.0023622047449425448
21
-0.30866143271679014
31
0
0
LINE
5
203
100
AcDbEntity
8
0
100
AcDbLine
10
0.070078741377732873
20
-0.37952757726504105
30
0
11
0.048031499536018665
21
-0.40708662956718383
31
0
0
LINE
5
204
100
AcDbEntity
8
0
100
AcDbLine
10
-0.097192092412345513
20
-0.39215567391164374
30
0
11
-0.097637799546474544
21
-0.39527561720900645
31
0
0
LINE
5
205
100
AcDbEntity
8
0
100
AcDbLine
10
-0.16570003442616701
20
-0.4550557190818475
30
0
11
-0.15748031730726947
21
-0.44015749232975515
31
0
0
LINE
5
206
100
AcDbEntity
8
0
100
AcDbLine
10
-0.16570003442616701
20
-0.4550557190818475
30
0
11
-0.14881890589796651
21
-0.46771656809829348
31
0
0
LINE
5
207
100
AcDbEntity
8
0
100
AcDbLine
10
-0.096062999072037331
20
-0.38740158550382597
30
0
11
-0.097192092412345513
21
-0.39215567391164374
31
0
0
LINE
5
208
100
AcDbEntity
8
0
100
AcDbLine
10
-0.234645675486467
20
-0.37165356902625613
30
0
11
-0.2377952881685392
21
-0.37952757726504105
31
0
0
LINE
5
209
100
AcDbEntity
8
0
100
AcDbLine
10
-0.097637799546474544
20
-0.39527561720900645
30
0
11
-0.12519685771521619
21
-0.43228348409097023
31
0
0
LINE
5
210
100
AcDbEntity
8
0
100
AcDbLine
10
-0.19133859497355662
20
-0.34960632718454193
30
0
11
-0.19228216846039986
21
-0.35275157838974469
31
0
0
LINE
5
211
100
AcDbEntity
8
0
100
AcDbLine
10
-0.050393703180973921
20
-0.40944885081193577
30
0
11
-0.037795275919080717
21
-0.35590552908229073
31
0
0
LINE
5
212
100
AcDbEntity
8
0
100
AcDbLine
10
-0.050393703180973921
20
-0.40944885081193577
30
0
11
-0.050393703180973921
21
-0.41259846349400797
31
0
0
LINE
5
213
100
AcDbEntity
8
0
100
AcDbLine
10
-0.050393703180973921
20
-0.41259846349400797
30
0
11
-0.050393703180973921
21
-0.4181102504880409
31
0
0
LINE
5
214
100
AcDbEntity
8
0
100
AcDbLine
10
0.048031499536018665
20
-0.40708662956718383
30
0
11
0.044466335125770425
21
-0.47625078406345944
31
0
0
LINE
5
215
100
AcDbEntity
8
0
100
AcDbLine
10
-0.11471420109043132
20
-0.45690933296751851
30
0
11
-0.11417323679435909
21
-0.45669294717743636
31
0
0
LINE
5
216
100
AcDbEntity
8
0
100
AcDbLine
10
-0.14881890589796651
20
-0.46771656809829348
30
0
11
-0.11417323679435909
21
-0.45354333449536416
31
0
0
LINE
5
217
100
AcDbEntity
8
0
100
AcDbLine
10
-0.11471420109043132
20
-0.45690933296751851
30
0
11
-0.11417323679435909
21
-0.45354333449536416
31
0
0
LINE
5
218
100
AcDbEntity
8
0
100
AcDbLine
10
-0.19133859497355662
20
-0.34960632718454193
30
0
11
-0.21968505044621744
21
-0.34960632718454193
31
0
0
LINE
5
219
100
AcDbEntity
8
0
100
AcDbLine
10
-0.234645675486467
20
-0.37165356902625613
30
0
11
-0.21968505044621744
21
-0.34960632718454193
31
0
0
LINE
5
220
100
AcDbEntity
8
0
100
AcDbLine
10
-0.24094490085061138
20
-0.42362208441486504
30
0
11
-0.2377952881685392
21
-0.37952757726504105
31
0
0
LINE
5
221
100
AcDbEntity
8
0
100
AcDbLine
10
-0.19370079275191299
20
-0.35748033542332686
30
0
11
-0.20834878046443783
21
-0.37403891372430076
31
0
0
LINE
5
222
100
AcDbEntity
8
0
100
AcDbLine
10
-0.19212599814407466
20
-0.35275591640021853
30
0
11
-0.19370079275191299
21
-0.35748033542332686
31
0
0
LINE
5
223
100
AcDbEntity
8
0
100
AcDbLine
10
-0.21259843364475278
20
-0.48425197601318354
30
0
11
-0.24094490085061138
21
-0.42362208441486504
31
0
0
LINE
5
224
100
AcDbEntity
8
0
100
AcDbLine
10
-0.11918396914832713
20
-0.48475307225271397
30
0
11
-0.11417323679435909
21
-0.45669294717743636
31
0
0
LINE
5
225
100
AcDbEntity
8
0
100
AcDbLine
10
-0.21749981693798615
20
-0.51733625846539277
30
0
11
-0.21259843364475278
21
-0.48425197601318354
31
0
0
LINE
5
226
100
AcDbEntity
8
0
100
AcDbLine
10
-0.050393703180973921
20
-0.4181102504880409
30
0
11
-0.0081692917609778072
21
-0.48740158869525574
31
0
0
LINE
5
227
100
AcDbEntity
8
0
100
AcDbLine
10
-0.0055976054560684758
20
-0.5698824048273794
30
0
11
-0.005992802557316935
21
-0.55446971468887152
31
0
0
LINE
5
228
100
AcDbEntity
8
0
100
AcDbLine
10
0.072440950889287023
20
-0.51968506002050685
30
0
11
0.044466335125770425
21
-0.47625078406345944
31
0
0
LINE
5
229
100
AcDbEntity
8
0
100
AcDbLine
10
-0.005992802557316935
20
-0.55446971468887152
30
0
11
-0.0081692917609778072
21
-0.48740158869525574
31
0
0
LINE
5
230
100
AcDbEntity
8
0
100
AcDbLine
10
-0.11918396914832713
20
-0.48475307225271397
30
0
11
-0.12283464820366205
21
-0.50787404766232946
31
0
0
LINE
5
231
100
AcDbEntity
8
0
100
AcDbLine
10
-0.21749981693798615
20
-0.51733625846539277
30
0
11
-0.24330709862896774
21
-0.5291338980667234
31
0
0
LINE
5
232
100
AcDbEntity
8
0
100
AcDbLine
10
-0.19212599814407466
20
-0.35275591640021853
30
0
11
-0.19228216846039986
21
-0.35275157838974469
31
0
0
LINE
5
233
100
AcDbEntity
8
0
100
AcDbLine
10
-0.019685039663408684
20
-0.66692918304383275
30
0
11
-0.0055976054560684758
21
-0.5698824048273794
31
0
0
LINE
5
234
100
AcDbEntity
8
0
100
AcDbLine
10
0.096062999072037331
20
-0.52204728126525879
30
0
11
0.072440950889287023
21
-0.51968506002050685
31
0
0
LINE
5
235
100
AcDbEntity
8
0
100
AcDbLine
10
-0.27165356583482636
20
-0.70629922423775737
30
0
11
-0.12283464820366205
21
-0.50787404766232946
31
0
0
LINE
5
236
100
AcDbEntity
8
0
100
AcDbLine
10
-0.24330709862896774
20
-0.5291338980667234
30
0
11
-0.36220473098003952
21
-0.53307090218611586
31
0
0
LINE
5
237
100
AcDbEntity
8
0
100
AcDbLine
10
-0.31496063461453894
20
-0.71023627528994093
30
0
11
-0.27165356583482636
21
-0.70629922423775737
31
0
0
LINE
5
238
100
AcDbEntity
8
0
100
AcDbLine
10
-0.36220473098003952
20
-0.53307090218611586
30
0
11
-0.36771654144046811
21
-0.54409452310697293
31
0
0
LINE
5
239
100
AcDbEntity
8
0
100
AcDbLine
10
0.14645669638641237
20
-0.52362206413989931
30
0
11
0.12755905549357255
21
-0.55748031833979084
31
0
0
LINE
5
240
100
AcDbEntity
8
0
100
AcDbLine
10
0.14465029344790248
20
-0.51820283737931594
30
0
11
0.14645669638641237
21
-0.52362206413989931
31
0
0
LINE
5
241
100
AcDbEntity
8
0
100
AcDbLine
10
0.12755905549357255
20
-0.55748031833979084
30
0
11
0.09527559590151928
21
-0.58267717286357723
31
0
0
LINE
5
242
100
AcDbEntity
8
0
100
AcDbLine
10
0.11023622094176885
20
-0.69055120776018752
30
0
11
0.10889473339127842
21
-0.68687669613438529
31
0
0
LINE
5
243
100
AcDbEntity
8
0
100
AcDbLine
10
0.09527559590151928
20
-0.58267717286357723
30
0
11
0.093830827302124942
21
-0.6433573679233956
31
0
0
LINE
5
244
100
AcDbEntity
8
0
100
AcDbLine
10
-0.035433072274125461
20
-0.66692918304383275
30
0
11
-0.019685039663408684
21
-0.66692918304383275
31
0
0
LINE
5
245
100
AcDbEntity
8
0
100
AcDbLine
10
0.10866142633393054
20
-0.68582681220347486
30
0
11
0.093830827302124942
21
-0.6433573679233956
31
0
0
LINE
5
246
100
AcDbEntity
8
0
100
AcDbLine
10
0.10866142633393054
20
-0.68582681220347486
30
0
11
0.10889473339127842
21
-0.68687669613438529
31
0
0
LINE
5
247
100
AcDbEntity
8
0
100
AcDbLine
10
0.14330709543753795
20
-0.51338583465636245
30
0
11
0.12755905549357255
21
-0.50629921785489773
31
0
0
LINE
5
248
100
AcDbEntity
8
0
100
AcDbLine
10
0.12755905549357255
20
-0.50629921785489773
30
0
11
0.096062999072037331
21
-0.52204728126525879
31
0
0
LINE
5
249
100
AcDbEntity
8
0
100
AcDbLine
10
-0.34722682119536274
20
-0.7530510132664967
30
0
11
-0.31496063461453894
21
-0.71023627528994093
31
0
0
LINE
5
250
100
AcDbEntity
8
0
100
AcDbLine
10
-0.36771654144046811
20
-0.54409452310697293
30
0
11
-0.7648622426461047
21
-1.4007874361173374
31
0
0
LINE
5
251
100
AcDbEntity
8
0
100
AcDbLine
10
-0.040408481102329585
20
-0.60082727750623732
30
0
11
-0.035433072274125461
21
-0.66692918304383275
31
0
0
LINE
5
252
100
AcDbEntity
8
0
100
AcDbLine
10
-0.094783470386595237
20
-0.8677165339312215
30
0
11
-0.089271659926166674
21
-1.3771654114009826
31
0
0
LINE
5
253
100
AcDbEntity
8
0
100
AcDbLine
10
0.11023622094176885
20
-0.69055120776018752
30
0
11
0.11181102728280494
21
-0.70000004580640407
31
0
0
LINE
5
254
100
AcDbEntity
8
0
100
AcDbLine
10
0.018897637959540359
20
-0.92992134920255398
30
0
11
0.064566930917304352
21
-0.88976377577293564
31
0
0
LINE
5
255
100
AcDbEntity
8
0
100
AcDbLine
10
0.11102362411228689
20
-0.81889770162387154
30
0
11
0.11181102728280494
21
-0.70000004580640407
31
0
0
LINE
5
256
100
AcDbEntity
8
0
100
AcDbLine
10
0.064566930917304352
20
-0.88976377577293564
30
0
11
0.11102362411228689
21
-0.81889770162387154
31
0
0
LINE
5
257
100
AcDbEntity
8
0
100
AcDbLine
10
-0.11181102728280494
20
-0.56141736939197451
30
0
11
-0.13464567229503721
21
-0.61102364006943588
31
0
0
LINE
5
258
100
AcDbEntity
8
0
100
AcDbLine
10
-0.067716537732777624
20
-0.54803152722636539
30
0
11
-0.11181102728280494
21
-0.56141736939197451
31
0
0
LINE
5
259
100
AcDbEntity
8
0
100
AcDbLine
10
-0.012731925279739592
20
-1.0085945108040504
30
0
11
0.002608267135742145
21
-0.97007882876658991
31
0
0
LINE
5
260
100
AcDbEntity
8
0
100
AcDbLine
10
0.14330709543753795
20
-0.51338583465636245
30
0
11
0.14465029344790248
21
-0.51820283737931594
31
0
0
LINE
5
261
100
AcDbEntity
8
0
100
AcDbLine
10
-0.34722682119536274
20
-0.7530510132664967
30
0
11
-0.30551182003471794
21
-0.79842524265679782
31
0
0
LINE
5
262
100
AcDbEntity
8
0
100
AcDbLine
10
-0.7648622426461047
20
-1.4007874361173374
30
0
11
-0.72549215451938898
21
-1.4220473334545225
31
0
0
LINE
5
263
100
AcDbEntity
8
0
100
AcDbLine
10
-0.72519690033019057
20
-1.4220473334545225
30
0
11
-0.72549215451938898
21
-1.4220473334545225
31
0
0
LINE
5
264
100
AcDbEntity
8
0
100
AcDbLine
10
-0.029133858643178863
20
-0.49212598425196846
30
0
11
-0.029133858643178863
21
-0.49606303530415208
31
0
0
LINE
5
265
100
AcDbEntity
8
0
100
AcDbLine
10
-0.029133858643178863
20
-0.50236221373550527
30
0
11
-0.040408481102329585
21
-0.60082727750623732
31
0
0
LINE
5
266
100
AcDbEntity
8
0
100
AcDbLine
10
-0.029133858643178863
20
-0.49606303530415208
30
0
11
-0.029133858643178863
21
-0.50236221373550527
31
0
0
LINE
5
267
100
AcDbEntity
8
0
100
AcDbLine
10
-0.089271659926166674
20
-1.3771654114009826
30
0
11
-0.091633863571121923
21
-1.5850393790898358
31
0
0
LINE
5
268
100
AcDbEntity
8
0
100
AcDbLine
10
-0.13257875217227483
20
-0.77165355832557969
30
0
11
-0.094783470386595237
21
-0.8677165339312215
31
0
0
LINE
5
269
100
AcDbEntity
8
0
100
AcDbLine
10
-0.018110237722321756
20
-1.3834646367651271
30
0
11
-0.02598425182770556
21
-1.5850393790898358
31
0
0
LINE
5
270
100
AcDbEntity
8
0
100
AcDbLine
10
0.0094488189797701794
20
-1.3700788415323091
30
0
11
-0.018110237722321756
21
-1.3834646367651271
31
0
0
LINE
5
271
100
AcDbEntity
8
0
100
AcDbLine
10
-0.012731925279739592
20
-1.0085945108040504
30
0
11
0.0028439819765994959
21
-1.2508267657740668
31
0
0
LINE
5
272
100
AcDbEntity
8
0
100
AcDbLine
10
-0.13730315946218535
20
-0.62283465242761327
30
0
11
-0.13257875217227483
21
-0.77165355832557969
31
0
0
LINE
5
273
100
AcDbEntity
8
0
100
AcDbLine
10
-0.13543307546555525
20
-0.61496064418882834
30
0
11
-0.13730315946218535
21
-0.62283465242761327
31
0
0
LINE
5
274
100
AcDbEntity
8
0
100
AcDbLine
10
0.002608267135742145
20
-0.97007882876658991
30
0
11
0.018897637959540359
21
-0.92992134920255398
31
0
0
LINE
5
275
100
AcDbEntity
8
0
100
AcDbLine
10
-0.13464567229503721
20
-0.61102364006943588
30
0
11
-0.13543307546555525
21
-0.61496064418882834
31
0
0
LINE
5
276
100
AcDbEntity
8
0
100
AcDbLine
10
-0.053673761799007132
20
-0.51125281981123771
30
0
11
-0.067716537732777624
21
-0.54803152722636539
31
0
0
LINE
5
277
100
AcDbEntity
8
0
100
AcDbLine
10
-0.39926737268095958
20
-0.82765839283070564
30
0
11
-0.3632874235393494
21
-0.8425197263402262
31
0
0
LINE
5
278
100
AcDbEntity
8
0
100
AcDbLine
10
-0.30551182003471794
20
-0.79842524265679782
30
0
11
-0.28661419087507589
21
-0.86141740243265941
31
0
0
LINE
5
279
100
AcDbEntity
8
0
100
AcDbLine
10
-0.28661419087507589
20
-0.86141740243265941
30
0
11
-0.29055119499446835
21
-0.87795276341475836
31
0
0
LINE
5
280
100
AcDbEntity
8
0
100
AcDbLine
10
-0.72519690033019057
20
-1.4220473334545225
30
0
11
-0.39926737268095958
21
-0.82765839283070564
31
0
0
LINE
5
281
100
AcDbEntity
8
0
100
AcDbLine
10
-0.3632874235393494
20
-0.8425197263402262
30
0
11
-0.35284816804607078
21
-0.88725935464438888
31
0
0
LINE
5
282
100
AcDbEntity
8
0
100
AcDbLine
10
-0.069291344073813724
20
-0.44094488376707541
30
0
11
-0.029133858643178863
21
-0.49212598425196846
31
0
0
LINE
5
283
100
AcDbEntity
8
0
100
AcDbLine
10
-0.093642365115115186
20
-1.7962193087898393
30
0
11
-0.093700789560483194
21
-1.8015748872531678
31
0
0
LINE
5
284
100
AcDbEntity
8
0
100
AcDbLine
10
-0.091633863571121923
20
-1.5850393790898358
30
0
11
-0.093642365115115186
21
-1.7962193087898393
31
0
0
LINE
5
285
100
AcDbEntity
8
0
100
AcDbLine
10
-0.02598425182770556
20
-1.5850393790898358
30
0
11
-0.034645672036906862
21
-1.8023622317576971
31
0
0
LINE
5
286
100
AcDbEntity
8
0
100
AcDbLine
10
0.0094488189797701794
20
-1.3700788415323091
30
0
11
0.04537401823546941
21
-1.3842520751352385
31
0
0
LINE
5
287
100
AcDbEntity
8
0
100
AcDbLine
10
0.0028439819765994959
20
-1.2508267657740668
30
0
11
0.062992130442867125
21
-1.3086614646310881
31
0
0
LINE
5
288
100
AcDbEntity
8
0
100
AcDbLine
10
-0.053673761799007132
20
-0.51125281981123771
30
0
11
-0.071161422203844915
21
-0.47322835509232647
31
0
0
LINE
5
289
100
AcDbEntity
8
0
100
AcDbLine
10
-0.29055119499446835
20
-0.87795276341475836
30
0
11
-0.46377956397890102
21
-1.1960630341777649
31
0
0
LINE
5
290
100
AcDbEntity
8
0
100
AcDbLine
10
-0.35284816804607078
20
-0.88725935464438888
30
0
11
-0.47952758045647081
21
-1.1653543457271545
31
0
0
LINE
5
291
100
AcDbEntity
8
0
100
AcDbLine
10
-0.48114826659198162
20
-1.1698844792556551
30
0
11
-0.48267719313854301
21
-1.1732284478315218
31
0
0
LINE
5
292
100
AcDbEntity
8
0
100
AcDbLine
10
-0.48267719313854301
20
-1.1732284478315218
30
0
11
-0.48517989484528729
21
-1.1811536657591817
31
0
0
LINE
5
293
100
AcDbEntity
8
0
100
AcDbLine
10
-0.47952758045647081
20
-1.1653543457271545
30
0
11
-0.48114826659198162
21
-1.1698844792556551
31
0
0
LINE
5
294
100
AcDbEntity
8
0
100
AcDbLine
10
-0.48517989484528729
20
-1.1811536657591817
30
0
11
-0.48769684288445414
21
-1.18818902593898
31
0
0
LINE
5
295
100
AcDbEntity
8
0
100
AcDbLine
10
-0.096062999072037331
20
-0.42992126284621829
30
0
11
-0.069291344073813724
21
-0.44094488376707541
31
0
0
LINE
5
296
100
AcDbEntity
8
0
100
AcDbLine
10
-0.096062999072037331
20
-0.42992126284621829
30
0
11
-0.10078740636194784
21
-0.44015749232975515
31
0
0
LINE
5
297
100
AcDbEntity
8
0
100
AcDbLine
10
-0.10157480953246589
20
-0.44330710501182735
30
0
11
-0.10131543017120989
21
-0.44282540001050857
31
0
0
LINE
5
298
100
AcDbEntity
8
0
100
AcDbLine
10
-0.093700789560483194
20
-1.8015748872531678
30
0
11
-0.096062999072037331
21
-2.0188977399210288
31
0
0
LINE
5
299
100
AcDbEntity
8
0
100
AcDbLine
10
-0.034645672036906862
20
-1.8023622317576971
30
0
11
-0.043307089312808716
21
-2.0188977399210288
31
0
0
LINE
5
300
100
AcDbEntity
8
0
100
AcDbLine
10
0.04537401823546941
20
-1.3842520751352385
30
0
11
0.076870080523603543
21
-1.4244095546992743
31
0
0
LINE
5
301
100
AcDbEntity
8
0
100
AcDbLine
10
0.062992130442867125
20
-1.3086614646310881
30
0
11
0.1236220513741801
21
-1.3716536244069497
31
0
0
LINE
5
302
100
AcDbEntity
8
0
100
AcDbLine
10
-0.10078740636194784
20
-0.44015749232975515
30
0
11
-0.10131543017120989
21
-0.44282540001050857
31
0
0
LINE
5
303
100
AcDbEntity
8
0
100
AcDbLine
10
-0.101856023513793
20
-0.4455568168624443
30
0
11
-0.10265749035857794
21
-0.4496063303759717
31
0
0
LINE
5
304
100
AcDbEntity
8
0
100
AcDbLine
10
-0.10265749035857794
20
-0.4496063303759717
30
0
11
-0.071161422203844915
21
-0.47322835509232647
31
0
0
LINE
5
305
100
AcDbEntity
8
0
100
AcDbLine
10
-0.10157480953246589
20
-0.44330710501182735
30
0
11
-0.101856023513793
21
-0.4455568168624443
31
0
0
LINE
5
306
100
AcDbEntity
8
0
100
AcDbLine
10
-0.48769684288445414
20
-1.18818902593898
30
0
11
-0.46377956397890102
21
-1.1960630341777649
31
0
0
LINE
5
307
100
AcDbEntity
8
0
100
AcDbLine
10
-0.096062999072037331
20
-2.0188977399210288
30
0
11
-0.098425196850393692
21
-2.2354332480843611
31
0
0
LINE
5
308
100
AcDbEntity
8
0
100
AcDbLine
10
-0.051162179925666761
20
-2.2152751409140845
30
0
11
-0.05196850365541112
21
-2.2362205925888903
31
0
0
LINE
5
309
100
AcDbEntity
8
0
100
AcDbLine
10
-0.043307089312808716
20
-2.0188977399210288
30
0
11
-0.051162179925666761
21
-2.2152751409140845
31
0
0
LINE
5
310
100
AcDbEntity
8
0
100
AcDbLine
10
0.10049212870635385
20
-1.6937008054237666
30
0
11
0.076870080523603543
21
-1.4244095546992743
31
0
0
LINE
5
311
100
AcDbEntity
8
0
100
AcDbLine
10
0.1236220513741801
20
-1.3716536244069497
30
0
11
0.13228347451668085
21
-1.6944883376594602
31
0
0
LINE
5
312
100
AcDbEntity
8
0
100
AcDbLine
10
-0.10078740636194784
20
-2.474803248728354
30
0
11
-0.098425196850393692
21
-2.2354332480843611
31
0
0
LINE
5
313
100
AcDbEntity
8
0
100
AcDbLine
10
-0.062204727272349075
20
-2.4755905932328832
30
0
11
-0.05196850365541112
21
-2.2362205925888903
31
0
0
LINE
5
314
100
AcDbEntity
8
0
100
AcDbLine
10
-0.062204727272349075
20
-2.4755905932328832
30
0
11
-0.062500004927943068
21
-2.4755905932328832
31
0
0
LINE
5
315
100
AcDbEntity
8
0
100
AcDbLine
10
0.13228347451668085
20
-1.6944883376594602
30
0
11
0.10049212870635385
21
-1.6937008054237666
31
0
0
LINE
5
316
100
AcDbEntity
8
0
100
AcDbLine
10
-0.10078740636194784
20
-2.474803248728354
30
0
11
-0.062500004927943068
21
-2.4755905932328832
31
0
0
LWPOLYLINE
5
317
100
AcDbEntity
8
0
100
AcDbPolyline
90
51
70
1
43
0.0
10
-3.6952758398581675
20
0.13464567229503721
10
-3.6314960539810297
20
0.13385826912451915
10
-3.1559058061734895
20
0.1236220513741801
10
-2.6480316177127867
20
0.11259843045332299
10
-2.1401576169832484
20
0.10157480953246589
10
-1.6330709607582392
20
0.090551182745009881
10
-1.4046699445958462
20
0.085585944182322196
10
-1.4338583458126999
20
0.122047245033144
10
-1.9735236806193672
20
0.20472442540596789
10
-1.9551181417750561
20
0.23858267960585944
10
-1.9330709937989241
20
0.23700789673121894
10
-1.7517683896842962
20
0.21978783629870588
10
-1.3417323743264504
20
0.18188976866053783
10
-1.3047244605116957
20
0.15275591001735894
10
-1.2716536446819153
20
0.096062999072037331
10
-0.95984259928305304
20
0.092125989086045981
10
-0.96377960340244551
20
0.13779528497710941
10
-1.1160433761716826
20
0.21653543776414524
10
-1.0971457000792495
20
0.23543309039018284
10
-1.09685039895726
20
0.23543309039018284
10
-1.095500483730129
20
0.23516310519912209
10
-1.0779528167304091
20
0.23228347770811064
10
-0.87559063603558873
20
0.15905512364830557
10
-0.82440948861790442
20
0.074015751363724236
10
-0.75354332060325802
20
0.0055118111937534041
10
-0.72125989621079811
20
-0.0078740163053583924
10
-0.74566931236447309
20
-0.023622048182750311
10
-0.75504684526163868
20
-0.02534006814149227
10
-0.75826776309276189
20
-0.02598425182770556
10
-0.77797287511181445
20
-0.026464865189351077
10
-0.78582679192850902
20
-0.046456696128282009
10
-0.77480317100765195
20
-0.074803154534242272
10
-0.69927777774837885
20
-0.12133901134587884
10
-0.66377957036176061
20
-0.10078740636194784
10
-0.656692953560296
20
-0.098425196850393692
10
-0.65649143636380858
20
-0.098705081808442868
10
-0.65275594944090354
20
-0.097637799546474544
10
-0.63858271583797421
20
-0.1173228377432335
10
-0.66614174467372134
20
-0.14960630906848454
10
-0.70314965848847633
20
-0.1740157604217529
10
-0.70775427972738114
20
-0.1755132008353493
10
-0.70787405404518899
20
-0.17559055502959123
10
-0.71496067084665371
20
-0.17795276454114536
10
-0.71525592503585211
20
-0.17795276454114536
10
-0.86141740243265941
20
-0.068503940903295674
10
-1.6333662618802287
20
-0.032283465458652162
10
-1.8871556116839965
20
-0.020472441733939747
10
-2.1412402626097671
20
-0.0086614180092267155
10
-2.6480316177127867
20
0.014960630906848457
10
-3.1562009195643146
20
0.038582679089598768
10
-3.6960631843626963
20
0.063779527746786274
0
LWPOLYLINE
5
318
100
AcDbEntity
8
0
100
AcDbPolyline
90
104
70
1
43
0.0
10
-1.4362205670574517
20
-0.21496063142310914
10
-1.4380906510540818
20
-0.18425197817209196
10
-1.4133858868456262
20
-0.18031497405269953
10
-0.89943562744105998
20
-0.13599550362381879
10
-0.84675203158160828
20
-0.1173228377432335
10
-0.83228349685668934
20
-0.11338583362384103
10
-0.76614177133154671
20
-0.16220473633037777
10
-0.72125989621079811
20
-0.19291338958139492
10
-0.69752459657037957
20
-0.20370215629922203
10
-0.65984256624236814
20
-0.17795276454114536
10
-0.64015749871261474
20
-0.15748031730726947
10
-0.62362209079772468
20
-0.077952761349715585
10
-0.60974411138399376
20
-0.058267717286357726
10
-0.59921262771125849
20
-0.05590551364140247
10
-0.58267717286357723
20
-0.05748031998243857
10
-0.57795277730686456
20
-0.077165358179197535
10
-0.58740161535308111
20
-0.17007874456916267
10
-0.57086616050539984
20
-0.18267717183105586
10
-0.53325034292796336
20
-0.18267717183105586
10
-0.47509843908895655
20
-0.13385826912451915
10
-0.47982283464566927
20
-0.10551181365185834
10
-0.51102366034440161
20
-0.047244096365500622
10
-0.50708665622500915
20
-0.0015748032244054186
10
-0.4813976175203098
20
0.024409449886618636
10
-0.43730313383688135
20
0.040157482497335417
10
-0.43657045792264498
20
0.040244966777162029
10
-0.43307087552829049
20
0.040944882734554017
10
-0.43234404924354525
20
0.04074961598475791
10
-0.4307087012163297
20
0.040944882734554017
10
-0.37795277092400498
20
0.026771654998223617
10
-0.33149608946222014
20
-0.01259842579524348
10
-0.31338585173989841
20
-0.044881892720545366
10
-0.29219045042129388
20
-0.051035389920431412
10
-0.28503938453403982
20
-0.035433072274125461
10
-0.28110238041464736
20
-0.033858268866388812
10
-0.26299214269232563
20
-0.030708662050915513
10
-0.234645675486467
20
-0.047244096365500622
10
-0.22204724822457378
20
-0.077165358179197535
10
-0.20236220416121595
20
-0.10944882950444859
10
-0.16062992998934167
20
-0.14724409955693041
10
-0.16377953093821607
20
-0.16850394996132437
10
-0.16453174452146685
20
-0.16984121449460651
10
-0.1645669341087341
20
-0.17007874456916267
10
-0.1661417404497702
20
-0.17322835725123487
10
-0.19133859497355662
20
-0.18110236549001976
10
-0.20629923174700399
20
-0.19606300226346712
10
-0.24488190497000384
20
-0.20314961906493179
10
-0.35039371862186219
20
-0.3094488241541104
10
-0.35433072274125466
20
-0.31338585173989841
10
-0.38582677916278985
20
-0.32440947266075554
10
-0.38612205681838385
20
-0.32440947266075554
10
-0.40344487963698977
20
-0.31338585173989841
10
-0.39872048408027705
20
-0.29685039689221715
10
-0.38297246760270726
20
-0.26692914681171803
10
-0.39005908440417186
20
-0.2362204818275031
10
-0.4118110251238965
20
-0.22440946946932572
10
-0.44973400623321841
20
-0.24618005345729566
10
-0.47795279758183035
20
-0.27874015916989542
10
-0.47897970861081707
20
-0.27956169044143381
10
-0.48031497189379108
20
-0.28110238041464736
10
-0.48582680582061522
20
-0.28503938453403982
10
-0.50944883053696999
20
-0.27559056995421882
10
-0.50108268505006326
20
-0.24173229228793164
10
-0.42234250879663177
20
-0.18110236549001976
10
-0.4149606378059687
20
-0.17637795820010926
10
-0.38267718994711325
20
-0.18110236549001976
10
-0.36062994810539906
20
-0.20078742128657542
10
-0.3409567871422205
20
-0.19875225345827222
10
-0.31889766220032695
20
-0.15748031730726947
10
-0.32153964934938339
20
-0.10111782369900776
10
-0.32440947266075548
20
-0.10271217024707674
10
-0.32996272571750096
20
-0.10610582591446922
10
-0.33228348089954041
20
-0.13937007958494771
10
-0.34566929959875387
20
-0.1614173331598597
10
-0.35118111005918246
20
-0.1661417404497702
10
-0.37322837536729225
20
-0.1677165467908063
10
-0.39763779152096723
20
-0.15433071635839507
10
-0.43702869769611563
20
-0.16250618786927129
10
-0.44724468404847018
20
-0.16993599565374171
10
-0.503937043542937
20
-0.21181104220743252
10
-0.50944883053696999
20
-0.21496063142310914
10
-0.57604988359547105
20
-0.22185039710602639
10
-0.5803149985516165
20
-0.22440946946932572
10
-0.60078741058589902
20
-0.25354332811250457
10
-0.58582678554564949
20
-0.32755906187643213
10
-0.56850398619343911
20
-0.37322837536729225
10
-0.59763784483661797
20
-0.4118110251238965
10
-0.60004627764417695
20
-0.41395187233118214
10
-0.60078741058589902
20
-0.4149606378059687
10
-0.60708663595004342
20
-0.42047247173279284
10
-0.60738189013924182
20
-0.42047247173279284
10
-0.62942913198095607
20
-0.41574802924328896
10
-0.67086618716322521
20
-0.38740158550382597
10
-0.72043277392320004
20
-0.38582803897297202
10
-1.4889764034841941
20
-0.9000000052564725
10
-1.4912443699514721
20
-0.90149499299283153
10
-1.4984252884632019
20
-0.9062992306206169
10
-1.5149607433108832
20
-0.91732289847426518
10
-1.5152560444328727
20
-0.91732289847426518
10
-1.534941065029835
20
-0.88582677165354329
10
-0.86879927342332242
20
-0.36141733954271932
10
-0.8291339311074083
20
-0.31102363049514647
10
-0.83307093522680076
20
-0.26614175537439777
10
-0.87322841479083679
20
-0.23070867136707454
0
LWPOLYLINE
5
319
100
AcDbEntity
8
0
100
AcDbPolyline
90
153
70
1
43
0.0
10
-2.0069783737245315
20
1.9824283127893645
10
-2.0007875021987074
20
1.9763781329778234
10
-1.7606299693190206
20
1.7299212808684099
10
-1.4889764034841941
20
1.4511811451649101
10
-1.2322835096224085
20
1.1874015875688686
10
-0.976377960265152
20
0.92598425121757921
10
-0.66220474055432887
20
0.60314963183065096
10
-0.53307090218611586
20
0.43937010089243489
10
-0.54724413578904518
20
0.35590552908229073
10
-0.58545934912936792
20
0.30570122701447322
10
-0.53858268918014884
20
0.30000000957428935
10
-0.52125988982793847
20
0.33228348089954041
10
-0.50157482229818506
20
0.35354333130393439
10
-0.50078743086086475
20
0.35354333130393439
10
-0.42937084700807565
20
0.34491055357632472
10
-0.33651576267452687
20
0.39055119818589817
10
-0.3443897709133118
20
0.43307087552829049
10
-0.36692915000314785
20
0.47480318489975815
10
-0.34724410593978999
20
0.51259844321904213
10
-0.31653544095557501
20
0.49842520961611286
10
-0.31102363049514647
20
0.49055120137732794
10
-0.29146231704819819
20
0.42091295255611294
10
-0.26540325675872595
20
0.38640233010650671
10
-0.17795276454114536
20
0.32913386821746821
10
-0.14094488592598381
20
0.3220472514160036
10
-0.11329097983372592
20
0.34147974282357796
10
-0.1236220513741801
20
0.35826772686064712
10
-0.17480316359227097
20
0.39763779152096723
10
-0.17716536137062733
20
0.40314962544779137
10
-0.17637795820010926
20
0.47165357221768595
10
-0.15068898989459659
20
0.48346458457586328
10
-0.15039371223900261
20
0.48346458457586328
10
-0.11653543457271545
20
0.40866145937461551
10
-0.065354334087822374
20
0.38818900040754178
10
-0.05748031998243857
20
0.32598427900179161
10
-0.05748031998243857
20
0.32283466631971941
10
-0.057535487870151836
20
0.32278282179074075
10
-0.05748031998243857
20
0.3220472514160036
10
-0.122047245033144
20
0.25984253001025343
10
-0.14251969226701991
20
0.17559055502959123
10
-0.17086614773968073
20
0.1582677204777875
10
-0.20000000638285959
20
0.1645669341087341
10
-0.20344489672052576
20
0.1661417404497702
10
-0.21446851764138289
20
0.19606300226346712
10
-0.22693742198083675
20
0.28490392536007825
10
-0.27637796139153908
20
0.31811024729661114
10
-0.36929134778150419
20
0.31968505363764721
10
-0.39291339596425451
20
0.28661419087507589
10
-0.39291339596425451
20
0.27323264139081599
10
-0.34517718581702761
20
0.29606300545489694
10
-0.34488190816143366
20
0.29606300545489694
10
-0.28818899721611202
20
0.28897638865343228
10
-0.24960630052671656
20
0.2614173363512895
10
-0.24943756336394732
20
0.26096736993202785
10
-0.24803151765207604
20
0.25984253001025343
10
-0.234645675486467
20
0.22283466312828965
10
-0.24015748594689554
20
0.18188976866053783
10
-0.26299214269232563
20
0.15590552269943117
10
-0.29527561401757668
20
0.15905512364830557
10
-0.30157481591532548
20
0.13779528497710941
10
-0.29639073486560397
20
0.11779953432628541
10
-0.2582677236692173
20
0.12283464820366205
10
-0.25590552589086096
20
0.12283464820366205
10
-0.22598425234396624
20
0.122047245033144
10
-0.22591953510962887
20
0.1215618631236039
10
-0.22440946946932572
20
0.12125985359582374
10
-0.22204724822457378
20
0.098425196850393692
10
-0.23858267960585944
20
0.054330713166965271
10
-0.24330709862896774
20
-0.00078740161220271752
10
-0.24487488517274733
20
-0.0014929057512813766
10
-0.24488190497000384
20
-0.001574803224405435
10
-0.27637796139153908
20
-0.015748032610716781
10
-0.27874015916989542
20
-0.016535434314585106
10
-0.27903543682548942
20
-0.016535434314585106
10
-0.32864175443574195
20
0
10
-0.36801181909606212
20
0.059055120456875776
10
-0.4461580468023712
20
0.061949425386408005
10
-0.49842520961611286
20
0.034645672036906869
10
-0.51653544733843459
20
-0.0039370081526791953
10
-0.51259844321904213
20
-0.080314964994670834
10
-0.50000003942354454
20
-0.10157480953246589
10
-0.50866143909964967
20
-0.12598426088573425
10
-0.52125988982793847
20
-0.13464567229503721
10
-0.52677167682197146
20
-0.15590552269943117
10
-0.52897692894134218
20
-0.1568748675919355
10
-0.5291338980667234
20
-0.15748031730726947
10
-0.53543307649807659
20
-0.1598425268188236
10
-0.56377954370393524
20
-0.16377953093821607
10
-0.56407479789313364
20
-0.16377953093821607
10
-0.57352363593935018
20
-0.13070866817564475
10
-0.56958663181995772
20
-0.081102368165188871
10
-0.57165355194272016
20
-0.01417322920298013
10
-0.59593215573853364
20
-0.015302465659437407
10
-0.61496064418882834
20
-0.048031499536018665
10
-0.64094489014993494
20
-0.081889765469108033
10
-0.6444101407701005
20
-0.082854007198954902
10
-0.64488194120211861
20
-0.083464571810144134
10
-0.65196855800358322
20
-0.085039372284581333
10
-0.73070868732422345
20
-0.085826775455099383
10
-0.75669293328533016
20
-0.053543309996447221
10
-0.73966538812231819
20
-0.037007875681862118
10
-0.72677168320483099
20
-0.035433072274125461
10
-0.69685043312433192
20
-0.040944882734554017
10
-0.68752531633883607
20
-0.039908759505023678
10
-0.67194883278974393
20
-0.017322836018453431
10
-0.68818898651543559
20
0.0094488189797701794
10
-0.74881892504654524
20
0.024409449886618636
10
-0.7908465355400025
20
0.06929134407381371
10
-0.80236224677619028
20
0.10393700731082224
10
-0.79370080016729394
20
0.10393700731082224
10
-0.78031511031219614
20
0.10216908529912218
10
-0.75970587825155145
20
0.099835961408654403
10
-0.75068900904317537
20
0.19291338958139492
10
-0.78897645154337237
20
0.24015748594689554
10
-0.86744500133862013
20
0.27487811726593742
10
-0.90236222650122444
20
0.26929134459007442
10
-1.5858269113255297
20
0.40866145937461551
10
-1.6136811474176842
20
0.4149606378059687
10
-1.6055118380569096
20
0.4559055557401161
10
-0.8039370296508308
20
0.34173229547936146
10
-0.81968504612840065
20
0.40472440832243189
10
-0.8740157592953659
20
0.47086618078036568
10
-0.96456694790697461
20
0.52125988982793847
10
-0.94596466680211333
20
0.53937012755026026
10
-0.94566936568012383
20
0.53937012755026026
10
-0.86141740243265941
20
0.50551182641757753
10
-0.85730835821211637
20
0.50311491116852824
10
-0.84724416882973008
20
0.4976378181787926
10
-0.76771655420618723
20
0.43149609265364997
10
-0.71341490425846454
20
0.3628647938101156
10
-0.65905512787225673
20
0.34960632718454193
10
-0.62440948223504489
20
0.38582677916278985
10
-0.61919290249741921
20
0.44409449644914756
10
-0.75111810109892996
20
0.58570907801497674
10
-0.8866142100236547
20
0.60236224039333064
10
-0.89203533704833871
20
0.60550077240180833
10
-0.89212599701768758
20
0.60551185307540289
10
-0.90157488199669533
20
0.61102364006943588
10
-1.2955709705202598
20
0.89842522238183198
10
-1.2692914234371635
20
0.93307091495183503
10
-1.2551181898342341
20
0.92362212383840958
10
-1.1172942421264789
20
0.83053051983356074
10
-1.0283290244702996
20
0.77051277153333864
10
-0.90582142293281576
20
0.68821142272913627
10
-0.82519692698801594
20
0.69055120776018752
10
-1.0291338905574767
20
0.9000000052564725
10
-1.2916339664008674
20
1.1700787882166583
10
-1.5503937803854153
20
1.4370079115619809
10
-1.7987206226258765
20
1.6921261164147083
10
-1.9375493207315755
20
1.8354331414530591
10
-2.0766733199592649
20
1.9787401664914106
10
-2.0354331009031279
20
2.0102363871777151
10
-2.0125986084224667
20
1.9881890514704184
0
LWPOLYLINE
5
320
100
AcDbEntity
8
0
100
AcDbPolyline
90
17
70
1
43
0.0
10
-0.64724411551407934
20
0.27244095727214662
10
-0.68188980808408239
20
0.26377953412964583
10
-0.65715665388024602
20
0.22745272684969059
10
-0.60708663595004342
20
0.21574804632682498
10
-0.60450991633087658
20
0.21510386642203327
10
-0.59685040646650656
20
0.21338584854846862
10
-0.57605272171627331
20
0.17487162263090969
10
-0.54593694479410504
20
0.1724623651442396
10
-0.52362206413989931
20
0.18976378863252052
10
-0.57559055606211262
20
0.21732285266786108
10
-0.58503939410832917
20
0.24251970719164748
10
-0.5291338980667234
20
0.25275591320878876
10
-0.49231127041335443
20
0.2449213274775407
10
-0.45068897600249042
20
0.25984253001025343
10
-0.45213099405381202
20
0.28724123828170628
10
-0.47716535921171888
20
0.29212600133550448
10
-0.51574805590111439
20
0.2614173363512895
0
LWPOLYLINE
5
321
100
AcDbEntity
8
0
100
AcDbPolyline
90
19
70
1
43
0.0
10
-0.39725445463654535
20
0.20894890058609938
10
-0.45984255985950856
20
0.19763780860450322
10
-0.39921262132839891
20
0.16535433727925217
10
-0.40314962544779137
20
0.13779528497710941
10
-0.48897641850268742
20
0.13464567229503721
10
-0.55275592278307817
20
0.11102362411228689
10
-0.6000000191485787
20
0.054330713166965271
10
-0.60314963183065096
20
0.054330713166965271
10
-0.61023624863211556
20
0.054330713166965271
10
-0.64173232852004636
20
0.059842523627393826
10
-0.64933074383744427
20
0.065892460762134786
10
-0.64645672407675914
20
0.049606300010455871
10
-0.61785198936215191
20
0.033559746139588828
10
-0.58818900679040143
20
0.046456696128282016
10
-0.56220476082929471
20
0.069291344073813724
10
-0.47244096365500621
20
0.11102362411228689
10
-0.38612205681838385
20
0.11653543457271545
10
-0.3664370362214216
20
0.14960630906848454
10
-0.37746065714227867
20
0.19291338958139492
0
LWPOLYLINE
5
322
100
AcDbEntity
8
0
100
AcDbPolyline
90
44
70
1
43
0.0
10
-0.85698826106514514
20
1.0023622062262587
10
-0.82598427149254494
20
1.0204724439485804
10
-0.44809075095160306
20
0.56093529331804048
10
-0.39842522989107865
20
0.62519687367236521
10
-0.4145658178573704
20
0.70743713234199956
10
-0.96220472666222268
20
1.5433071166511594
10
-0.97903548263189355
20
1.5692914564778484
10
-0.94881893142940488
20
1.6000000510628767
10
-0.31496063461453894
20
0.68425198239604312
10
-0.31023623905782621
20
0.67401579984529747
10
-0.31554243711365071
20
0.60655123975223257
10
-0.25275591320878876
20
0.53149607237868413
10
-0.18740157912096639
20
0.53149607237868413
10
-0.15039371223900261
20
0.51968506002050685
10
-0.14881890589796651
20
0.51417327302647386
10
-0.14882555120922894
20
0.51416377971389238
10
-0.14803150272744847
20
0.51181105178172193
10
-0.1645669341087341
20
0.488188980132576
10
-0.21102362730371668
20
0.47874018901915061
10
-0.21496063142310914
20
0.4527559430580439
10
-0.20187170399638446
20
0.40912612717919339
10
-0.18031497405269953
20
0.38110238360607712
10
-0.17874016771166343
20
0.37795277092400498
10
-0.17894415648284343
20
0.37764678795721435
10
-0.17795276454114536
20
0.37559057314564859
10
-0.19055119180303856
20
0.35748033542332686
10
-0.2456692964073241
20
0.39685040008364697
10
-0.24911418674499028
20
0.40236223401047111
10
-0.27667323904713303
20
0.46141734273414908
10
-0.32262959209618824
20
0.54248543841580465
10
-0.34881891228082607
20
0.54094491042490078
10
-0.38188977504339738
20
0.51653544733843459
10
-0.38818900040754178
20
0.48031497189379108
10
-0.37716537948668472
20
0.43700787964768295
10
-0.35511813764497047
20
0.40866145937461551
10
-0.36850395634418392
20
0.39212600452693425
10
-0.4110236336865763
20
0.39291339596425451
10
-0.43385826696561075
20
0.38976380674857791
10
-0.45039372181329196
20
0.36929134778150419
10
-0.49842520961611286
20
0.38031496870236131
10
-0.50528328247859533
20
0.38511562379383291
10
-0.50659447204409613
20
0.38582677916278985
10
-0.5231299268917774
20
0.4118110251238965
10
-0.50787404766232946
20
0.50472443498025721
0
LWPOLYLINE
5
323
100
AcDbEntity
8
0
100
AcDbPolyline
90
311
70
1
43
0.0
10
0.70049183525416248
20
-0.18670018099261279
10
0.69606304168701161
20
-0.18503938134261003
10
0.65275594944090354
20
-0.19763780860450322
10
0.63464571171858175
20
-0.21732285266786108
10
0.61960546285542883
20
-0.21157217082999058
10
0.60944885719479536
20
-0.18110236549001976
10
0.63858271583797421
20
-0.14566929321589431
10
0.64488194120211861
20
-0.10629921682237639
10
0.64960633675883128
20
-0.070866144548250923
10
0.64724411551407934
20
-0.044094489550027316
10
0.60944885719479536
20
-0.034645672036906862
10
0.60157484895601043
20
-0.033070868629170212
10
0.60155116008843279
20
-0.033086196715680735
10
0.59763784483661797
20
-0.032283465458652162
10
0.54409452310697293
20
-0.066929134562259573
10
0.50259021957026195
20
-0.066259714333922637
10
0.42834647997157776
20
0.011811024091375156
10
0.45118111325061222
20
0.047244096365500622
10
0.54251969329954131
20
0.070866144548250923
10
0.55275592278307817
20
0.10236221270298394
10
0.55021270155643731
20
0.14750429473367599
10
0.58582678554564949
20
0.1173228377432335
10
0.57322838175015178
20
0.069291344073813724
10
0.55275592278307817
20
0.037007875681862118
10
0.50472443498025721
20
0.034645672036906862
10
0.46929135097293401
20
0.01417322920298013
10
0.48503941438329495
20
-0.0062992128976217402
10
0.48799692554322793
20
-0.0068369433831379041
10
0.488188980132576
20
-0.007086614601490065
10
0.54645669741893377
20
-0.015748032610716781
10
0.55081333461232207
20
-0.016292611245533738
10
0.55246066859387977
20
-0.016535434314585106
10
0.55275592278307817
20
-0.016535434314585106
10
0.61101003329626669
20
-0.0017875563934553727
10
0.64881894532151108
20
-0.01417322920298013
10
0.67165357860054553
20
-0.069291344073813738
10
0.65511812375286427
20
-0.12913386183460865
10
0.64251971995736668
20
-0.15354331318787701
10
0.64645672407675914
20
-0.15511811952891311
10
0.65433073231554406
20
-0.1582677204777875
10
0.68976381632286732
20
-0.16692914362028827
10
0.71732289209140565
20
-0.14566929321589428
10
0.74645675073458451
20
-0.072440950889287023
10
0.70236222011836491
20
0.015748032610716781
10
0.6763779741572582
20
0.066141737258340438
10
0.66929135735579359
20
0.14803150272744847
10
0.73385830000629571
20
0.22204724822457378
10
0.92913391083244257
20
0.36220473098003952
10
1.6590552067193458
20
0.90787401349525743
10
1.6448818792508342
20
0.95433071842343775
10
1.6445865781288447
20
0.95433071842343775
10
1.6157480675404465
20
0.93858270194586801
10
0.87956250315453277
20
0.45708173712849343
10
0.84645673045961867
20
0.47795279758183035
10
0.86062996406254799
20
0.52677167682197146
10
1.0118110912052665
20
0.72440946196007905
10
0.99055119386808133
20
0.76850399257629864
10
0.97322839451587095
20
0.75669293328533016
10
0.78740157480314954
20
0.55275592278307817
10
0.76771655420618723
20
0.49212598425196846
10
0.76692916276886702
20
0.4181102504880409
10
0.69902684497873979
20
0.36115990961132088
10
0.61732286543358028
20
0.35826772686064712
10
0.64881894532151108
20
0.41023624224925603
10
0.6377953244006539
20
0.47165357221768595
10
0.60157484895601043
20
0.50157482229818506
10
0.60127959476681203
20
0.50157482229818506
10
0.59055122803515336
20
0.4944882054967204
10
0.55590553546515031
20
0.46614173829086181
10
0.53924056981036506
20
0.42266791672130716
10
0.48425197601318354
20
0.40629923812986357
10
0.4244094758521853
20
0.41023624224925603
10
0.4406792931546662
20
0.42824926663206359
10
0.50787404766232946
20
0.42598425872682583
10
0.51732283877575491
20
0.43228348409097023
10
0.53307090218611586
20
0.46299212560878961
10
0.48188980170122275
20
0.47637796777439867
10
0.38661419406650571
20
0.46299212560878961
10
0.38110238360607712
20
0.45905512148939714
10
0.35482369682111825
20
0.43812951664552263
10
0.33828740514169525
20
0.42519686728950556
10
0.29291339277282474
20
0.39212600452693425
10
0.28897638865343228
20
0.38818900040754178
10
0.28740158231239615
20
0.38661419406650571
10
0.24780428117701045
20
0.29518043496284702
10
0.2362204818275031
20
0.3480315208435058
10
0.27244095727214662
20
0.42913387140889803
10
0.27874015916989542
20
0.48661419725793548
10
0.24803151765207604
20
0.51102366034440161
10
0.24773623999648206
20
0.51102366034440161
10
0.19763780860450322
20
0.46456695541622128
10
0.19370079275191299
20
0.45748033861475662
10
0.17772099766574515
20
0.39283479164852891
10
0.15433071635839507
20
0.39212600452693425
10
0.046456696128282016
20
0.46377956397890102
10
-0.010236220683638527
20
0.49842520961611286
10
-0.069603092002235328
20
0.51859085209420164
10
-0.075051801842876228
20
0.52051392803791241
10
-0.070078741377732873
20
0.53543307649807659
10
-0.010236220683638504
20
0.52362206413989931
10
0.12283464820366205
20
0.4464567176938995
10
0.15748031730726947
20
0.44724410913121976
10
0.1818184545748788
20
0.48661461965235658
10
0.18582678451312806
20
0.49291342262207988
10
0.18818898229148442
20
0.4976378181787926
10
0.18976378863252052
20
0.5299212895040436
10
0.16220473633037777
20
0.54724413578904518
10
0.066929134562259573
20
0.57322838175015178
10
-0.034645672036906862
20
0.61653547399625996
10
-0.10078740636194784
20
0.62598426510968541
10
-0.17299372586951262
20
0.64067032586904304
10
-0.11023622094176885
20
0.66220474055432887
10
-0.11055821966478807
20
0.66524908450384446
10
-0.11023622094176885
20
0.66535435323640113
10
-0.11102362411228689
20
0.67244097003786574
10
-0.12598426088573425
20
0.72440946196007905
10
-0.1582677204777875
20
0.75196853772861749
10
-0.24015748594689554
20
0.91338589435487272
10
-0.61181103150675609
20
1.9141734115720732
10
-0.66249999474352739
20
1.8992127395990326
10
-0.36141733954271932
20
0.99921264047697766
10
-0.38503938772546958
20
0.98818906648891169
10
-0.64094489014993494
20
1.4448819198007659
10
-0.6703740029823122
20
1.4338583458126999
10
-0.45118111325061222
20
0.94960636979951629
10
-0.40629923812986357
20
0.9000000052564725
10
-0.33307087233686067
20
0.89842522238183198
10
-0.29055119499446835
20
0.75590554184800995
10
-0.28976380355714809
20
0.6314960990365095
10
-0.28503938453403982
20
0.62125986955297274
10
-0.25433071954982484
20
0.5803149985516165
10
-0.22047244188353771
20
0.54173230186222099
10
-0.13149607134616281
20
0.5299212895040436
10
-0.10000000319142979
20
0.42598425872682583
10
-0.066141737258340424
20
0.40708662956718383
10
-0.055118110470884427
20
0.41338585493132818
10
-0.055118110470884427
20
0.41574802924328896
10
-0.055118110470884427
20
0.41968508029547258
10
-0.058674153865915048
20
0.44724440170375668
10
-0.060355057561611559
20
0.4621324002427562
10
-0.030708662050915513
20
0.45433072593268442
10
-0.011883827603262421
20
0.42217162729852958
10
-0.012598425795243475
20
0.36929134778150419
10
-0.044094489550027316
20
0.29763781179593302
10
-0.098720474505987685
20
0.2393700945095753
10
-0.11131890176788088
20
0.21259843364475278
10
-0.098425196850393665
20
0.19055119180303856
10
-0.042519686142290666
20
0.19527559909294909
10
0.014960630906848444
20
0.22834647358871818
10
0.066141737258340424
20
0.2362204818275031
10
0.10078740636194784
20
0.22047244188353771
10
0.11968504725478765
20
0.19291338958139492
10
0.14488190177857405
20
0.19527559909294909
10
0.14575641860515021
20
0.1959993405032566
10
0.14645669638641237
20
0.19606300226346712
10
0.14803150272744847
20
0.19763780860450322
10
0.15433071635839507
20
0.244094490066288
10
0.14881890589796651
20
0.27322834870946688
10
0.092913392256564045
20
0.33228348089954041
10
0.05669291681192052
20
0.36929134778150419
10
0.053649408725040384
20
0.39668289788753541
10
0.11811024091375155
20
0.35118111005918246
10
0.1582677204777875
20
0.33307087233686067
10
0.18976378863252052
20
0.29763781179593302
10
0.20866142952536032
20
0.2472441027483602
10
0.19606300226346712
20
0.20551181684328815
10
0.16737419671304349
20
0.16247861414260648
10
0.13070866817564475
20
0.1677165467908063
10
0.10472441048134029
20
0.19685039370078738
10
0.05669291681192052
20
0.21181104220743252
10
0.032283465458652162
20
0.19370079275191299
10
0.031496065221433563
20
0.19212599814407466
10
0.031651473852132912
20
0.19180482028671142
10
0.031496065221433563
20
0.19133859497355662
10
0.042519686142290666
20
0.1677165467908063
10
0.092125989086045981
20
0.11968504725478765
10
0.1157480314021974
20
0.077952761349715585
10
0.1236220513741801
20
0.051181106351491971
10
0.12568898323014024
20
0.050393703180973921
10
0.16062992998934167
20
0.048031499536018665
10
0.1614173331598597
20
0.048031499536018665
10
0.16377953093821607
20
0.048031499536018665
10
0.18976378863252052
20
0.08267716863962607
10
0.22834647358871818
20
0.12440945454469815
10
0.27795276773257516
20
0.21417323998578888
10
0.30787404127946988
20
0.2551181109871451
10
0.32362205775703967
20
0.33307087233686067
10
0.35511371441785888
20
0.35996999695668069
10
0.42204725460743336
20
0.37086615412254031
10
0.50708665622500915
20
0.36062994810539906
10
0.52677167682197146
20
0.31338585173989841
10
0.56299215226661492
20
0.28267718675568343
10
0.57874016874418477
20
0.2488189090893963
10
0.56054961992841412
20
0.2415426833674181
10
0.52598428538465125
20
0.26535434047068196
10
0.4913385928146482
20
0.30708662637575401
10
0.44724410913121976
20
0.33543309358161261
10
0.39606300864632671
20
0.35433072274125466
10
0.34931104952894793
20
0.33070867455850433
10
0.34767355009213741
20
0.32942015649690137
10
0.34488190816143366
20
0.32755906187643213
10
0.34442005547669863
20
0.32686004167726729
10
0.34330710182039753
20
0.32598427900179161
10
0.31417324317721868
20
0.28188977185196762
10
0.33622048501893287
20
0.27322834870946688
10
0.34225723092637339
20
0.27602800442686437
10
0.34330710182039753
20
0.27637796139153908
10
0.37373710546285072
20
0.29580137248777877
10
0.40078740420303943
20
0.28188977185196762
10
0.36614175856582759
20
0.26535434047068196
10
0.36535434366211172
20
0.22125985678725354
10
0.35592771062924233
20
0.20074305460787878
10
0.33858268279728926
20
0.23543309039018284
10
0.33828740514169525
20
0.23543309039018284
10
0.33635934217466046
20
0.23459933040941913
10
0.33228348089954041
20
0.2330708691454309
10
0.29685039689221715
20
0.20629923174700399
10
0.26929134459007442
20
0.14566929321589431
10
0.23385828404914674
20
0.080314964994670834
10
0.21732285266786108
20
0.050393703180973921
10
0.27165356583482636
20
0.031496065221433563
10
0.27687009863966089
20
0.030708662050915513
10
0.27716537629525489
20
0.030708662050915513
10
0.3251968640980758
20
0.037795275919080717
10
0.36692915000314785
20
0.076377955008679485
10
0.39921262132839891
20
0.1173228377432335
10
0.42204725460743336
20
0.12903291996147068
10
0.42204725460743336
20
0.10944882950444859
10
0.39842522989107865
20
0.074803154534242272
10
0.36299214588375539
20
0.037795275919080717
10
0.30499273654550163
20
0.010363123090430351
10
0.29527563748397223
20
0.010952038151827893
10
0.25275591320878876
20
0.01417322920298013
10
0.17247183246500389
20
0.014945191628431279
10
0.17165355091019882
20
0.014960630906848457
10
0.17162205478103143
20
0.014953362568870979
10
0.17086614773968073
20
0.014960630906848457
10
0.12992126500512671
20
0.0062992128976217402
10
0.122047245033144
20
-0.033858268866388805
10
0.13543307546555525
20
-0.059842523627393826
10
0.13753281464621961
20
-0.061417324101831039
10
0.13858268814762745
20
-0.062992130442867125
10
0.16514550285453905
20
-0.07949718349184276
10
0.15905512364830557
20
-0.10157480953246589
10
0.14251969226701991
20
-0.12598426088573425
10
0.14537401556030033
20
-0.12992126500512671
10
0.15954724916322963
20
-0.14251969226701991
10
0.21259843364475278
20
-0.14566929321589431
10
0.2614173363512895
20
-0.15354331318787701
10
0.2582677236692173
20
-0.12834645866409061
10
0.22834647358871818
20
-0.081102368165188884
10
0.24173229228793164
20
-0.064566930917304324
10
0.26220473470818773
20
-0.054330709707176295
10
0.26692914681171803
20
-0.062204727272349075
10
0.26062994491396924
20
-0.10000000319142979
10
0.27795276773257516
20
-0.12283464820366205
10
0.28346457819300369
20
-0.12677166405625229
10
0.30629923493843375
20
-0.12283464820366205
10
0.34173229547936146
20
-0.066141737258340424
10
0.37874476720955302
20
-0.055175081237578298
10
0.40157484257315085
20
-0.093700789560483194
10
0.38110238360607712
20
-0.14960630906848454
10
0.33937009770100507
20
-0.19685039370078738
10
0.26692914681171803
20
-0.24330709862896774
10
0.24803151765207604
20
-0.28818899721611202
10
0.24967894385461434
20
-0.29038556821378925
10
0.24960630052671656
20
-0.29055119499446835
10
0.25275591320878876
20
-0.29448819911386082
10
0.29527561401757668
20
-0.30551182003471794
10
0.33622048501893287
20
-0.26614175537439777
10
0.38267718994711325
20
-0.24173229228793164
10
0.4212598631701131
20
-0.2314960628043948
10
0.4244094758521853
20
-0.15669292586994921
10
0.46692917666097322
20
-0.12755905549357255
10
0.50820040880253559
20
-0.11803492427156784
10
0.50551182641757753
20
-0.15433071635839507
10
0.46692917666097322
20
-0.17086614773968073
10
0.48267719313854301
20
-0.2377952881685392
10
0.57244099031283158
20
-0.34881891228082607
10
0.57536734047639115
20
-0.35090502752900221
10
0.57559055606211262
20
-0.35118111005918246
10
0.57812184729761273
20
-0.35286864034352811
10
0.58238191867437883
20
-0.35590552908229073
10
0.69891740017988546
20
-0.36850395634418392
10
0.73850608000535622
20
-0.38295697595160044
10
0.77716539225240389
20
-0.43307087552829049
10
0.78740157480314954
20
-0.49685042674147234
10
1.0574803577633354
20
-0.72362207052275884
10
1.076082732733779
20
-0.73779530412568817
10
1.0763780338557685
20
-0.73779530412568817
10
1.1007874969422347
20
-0.7275590746421513
10
0.87480319766547732
20
-0.48582680582061522
10
0.89055121414304705
20
-0.44724410913121976
10
0.9273304277627511
20
-0.44176638368323673
10
1.2244095013836236
20
-0.5937007937844343
10
1.3649285312739119
20
-0.66688251023295242
10
1.6327976787709715
20
-0.80710285622577838
10
1.6590552067193458
20
-0.82125992286862348
10
2.0960631332998201
20
-1.0527559152738315
10
2.5330710598802941
20
-1.2834646570400927
10
2.9243913941567952
20
-1.4893879268447934
10
2.9637796672310412
20
-1.5102363008213793
10
2.9984252659354622
20
-1.5283465385437009
10
3.0228348228875106
20
-1.4787402678662396
10
2.5669293140801854
20
-1.225196939753735
10
2.1354331744937443
20
-0.98503940687404834
10
1.7031496904027743
20
-0.74566931236447309
10
1.4438545336031208
20
-0.60312729307636648
10
1.2692914234371635
20
-0.50551182641757753
10
0.7086614454825092
20
-0.18976378863252047
10
0.70078743724372439
20
-0.18661418768364613
0
LWPOLYLINE
5
324
100
AcDbEntity
8
0
100
AcDbPolyline
90
40
70
1
43
0.0
10
0.20206692650562194
20
2.3984253875852568
10
0.077165358179197535
20
1.3842520751352385
10
0.0025958322146861158
20
1.3279584176407804
10
0.0086614180092267155
20
1.7062992561520554
10
0.0087505123208521506
20
1.7125104042228889
10
0.014960630906848457
20
2.0905513463057868
10
0.020472441367277008
20
2.474803248728354
10
0.02677165499822361
20
2.8598426833866148
10
0.031784410763067261
20
3.1875515389927349
10
0.032283465458652162
20
3.2157481186033232
10
0.033070868629170212
20
3.2716537085105113
10
-0.033070868629170212
20
3.2724410530150405
10
-0.047539371087795164
20
2.8598426833866148
10
-0.059514966802596221
20
2.5083184405546537
10
-0.060629926797911869
20
2.4763781254685768
10
-0.074311029019318228
20
2.091338690810316
10
-0.085624835777324729
20
1.7372617351253077
10
-0.086614178625617433
20
1.707086788387749
10
-0.099212600020911743
20
1.3385827147115872
10
-0.11181102728280494
20
0.8299212756119374
10
-0.13809056263270339
20
0.8031496851463017
10
-0.13966535724054172
20
0.7653543798942265
10
-0.13700788180659135
20
0.75354332060325802
10
-0.11181102728280494
20
0.73307090856897539
10
-0.080314964994670834
20
0.67874019540201014
10
-0.046456696128282023
20
0.6377953244006539
10
0.036220475444643505
20
0.64566933263943882
10
0.070866144548250923
20
0.68110241664676208
10
0.071297071924282154
20
0.68390342853770181
10
0.071653547718768973
20
0.68425198239604312
10
0.072440950889287023
20
0.69133859919750773
10
0.02834645840596026
20
0.74566931236447309
10
0.0021588991252571971
20
0.83116403297158092
10
0.031697324995746658
20
1.1727493914530474
10
0.080314964994670834
20
1.2472441815954494
10
0.1598425268188236
20
1.3346457105921947
10
0.16166929579156328
20
1.3487559033191587
10
0.16299213950089581
20
1.3566929524339089
10
0.25118110686775263
20
2.396850510845034
10
0.20236220416121595
20
2.3984253875852568
0
LWPOLYLINE
5
325
100
AcDbEntity
8
0
100
AcDbPolyline
90
12
70
1
43
0.0
10
0.17214567642512282
20
1.1921260300583725
10
0.20206692650562194
20
1.209448829410583
10
0.20236220416121595
20
1.209448829410583
10
0.14409449860805601
20
0.75433075897336943
10
0.14251969226701991
20
0.74724414217190471
10
0.14186977573544818
20
0.74687912051375782
10
0.14094488592598381
20
0.74330713805251225
10
0.084251974980662184
20
0.71102366672726125
10
0.028346458405960239
20
0.79606302141204588
10
0.029921261813696913
20
0.80944881664486379
10
0.050393703180973921
20
0.84409450921486673
10
0.084251974980662184
20
0.86220474693718852
0
LWPOLYLINE
5
326
100
AcDbEntity
8
0
100
AcDbPolyline
90
46
70
1
43
0.0
10
1.0658439568010361
20
1.983078423414363
10
1.0637795831274797
20
1.9795276987271044
10
0.94566936568012383
20
1.7842519940353752
10
0.82677170986265636
20
1.5881891325702817
10
0.70866144548250931
20
1.3929134278785524
10
0.58976378966504195
20
1.1976378170524056
10
0.47086618078036568
20
1.0023622062262587
10
0.43621725628180336
20
0.9450797373455081
10
0.37637796458296885
20
0.84566929208950725
10
0.32793026722178603
20
0.76396291236029434
10
0.22913386502603844
20
0.59606301502918624
10
0.14724409955693041
20
0.57480316462479231
10
0.11338583362384104
20
0.57322838175015178
10
0.088976382270572682
20
0.58976378966504195
10
0.032283465458652162
20
0.59921262771125849
10
0.02598425182770556
20
0.62677170347979683
10
0.026176592478337167
20
0.62907977982300312
10
0.02598425182770556
20
0.62992126922907787
10
0.02677165499822361
20
0.63622049459322227
10
0.078740158653634734
20
0.66062995767968835
10
0.1075787455078185
20
0.66141734911700867
10
0.21245080068355429
20
0.79685041284936564
10
0.31052793682965391
20
0.92386605958607482
10
0.30708662637575401
20
0.96929139039647849
10
0.28110238041464736
20
1.0314961118022288
10
0.29606300545489694
20
1.1188977346645566
10
0.29733536849381448
20
1.1233149976179375
10
0.29763781179593302
20
1.1251968661631184
10
0.29940147062936567
20
1.1304878847123598
10
0.30127953825973147
20
1.1370079723868782
10
0.42175200041823496
20
1.3417323743264504
10
0.42204725460743336
20
1.3417323743264504
10
0.44173232213718683
20
1.3236221366041288
10
0.43622048821036269
20
1.3094489030011995
10
0.42333882326208877
20
1.280035763983659
10
0.34683018419119649
20
1.1045159257778698
10
0.36535434366211172
20
1.0551181365185833
10
0.40000001276571917
20
1.0763780338557685
10
0.53120081818948572
20
1.2708662063118039
10
0.59749019427562344
20
1.3685040117248777
10
0.66348431617256221
20
1.4661418171379508
10
0.79498028191994485
20
1.6606300834595686
10
0.92726382683581243
20
1.8551182559156041
10
1.0590551406379758
20
2.0496064283716393
10
1.083464603724442
20
2.013385952926996
10
1.0708661529961532
20
1.9913386172196994
0
LWPOLYLINE
5
327
100
AcDbEntity
8
0
100
AcDbPolyline
90
42
70
1
43
0.0
10
0.83095473567331868
20
1.1909449194359967
10
0.84409450921486673
20
1.171653571091299
10
0.83853572396173304
20
1.1649830420407281
10
0.83385827973132987
20
1.1590552142285924
10
0.83195907105718658
20
1.1570910742352494
10
0.82834649273729688
20
1.1527559888644481
10
0.65733515983767521
20
0.97511054904988803
10
0.65354334087822374
20
0.8803149846595103
10
1.1705709254647803
20
1.3220473537294883
10
1.6874016739252045
20
1.7629921905637724
10
2.2047245596337506
20
2.2039370273980565
10
2.7217521442203068
20
2.6448820519635055
10
2.9802497324488724
20
2.8658183703247073
10
3.2382878731554885
20
3.0866142333023188
10
3.2385829865463136
20
3.0866142333023188
10
3.274803461990957
20
3.0496064133531462
10
3.2165354631078524
20
2.9968505769264038
10
2.7236221343513547
20
2.5559055523609548
10
2.5216623229577215
20
2.3752047371944696
10
2.2708661912933108
20
2.1503938464667853
10
1.7370079446026658
20
1.6724410019521636
10
1.5694306799491915
20
1.5225034460136999
10
1.2519685302193708
20
1.2377952966164416
10
0.76325675942670379
20
0.80097524659954777
10
0.56299215226661492
20
0.58897639822772163
10
0.55275592278307817
20
0.52834645969661198
10
0.55089115252802379
20
0.52710328364320269
10
0.54251969329954131
20
0.52047245145782706
10
0.48346458457586328
20
0.49842520961611286
10
0.40157484257315085
20
0.50236221373550527
10
0.35826772686064712
20
0.48031497189379108
10
0.29763781179593302
20
0.42913387140889803
10
0.29685039689221715
20
0.49212598425196846
10
0.28503938453403982
20
0.52047245145782706
10
0.20944882096268058
20
0.53937012755026026
10
0.21338584854846862
20
0.54724413578904518
10
0.2312007851488008
20
0.57007876906807964
10
0.31417324317721868
20
0.60314963183065096
10
0.52568903119545274
20
0.81338582076425625
10
0.55167327715655945
20
0.97559061576062289
10
0.81781496213177052
20
1.2102362677806944
10
0.81811026325376013
20
1.2102362677806944
0
LWPOLYLINE
5
328
100
AcDbEntity
8
0
100
AcDbPolyline
90
35
70
1
43
0.0
10
2.0671835870638486
20
-0.44127249601539287
10
2.0590551256194827
20
-0.43937010089243489
10
1.3083661635090984
20
-0.23937009450957533
10
1.2249016386317455
20
-0.18740157912096639
10
1.2036417412945604
20
-0.091338585915527931
10
0.76377955008679477
20
-0.082677168639626084
10
0.69133859919750773
20
0.055118110470884427
10
0.67529532853073959
20
0.1188976440842696
10
0.67874019540201014
20
0.12755905549357255
10
0.73228351713165518
20
0.19527559909294909
10
0.7461614965453861
20
0.20629923174700399
10
0.74645675073458451
20
0.20629923174700399
10
0.75373910294577373
20
0.20288562787634318
10
0.79685045978215729
20
0.18346457500157393
10
0.80787403377022327
20
0.14015748275546575
10
0.83307093522680076
20
0.092125989086045981
10
0.92586190133050827
20
0.057816712396007448
10
1.6220473867701732
20
0.026771654998223603
10
2.1141733710221415
20
0.0050196849455044984
10
2.5849130806661895
20
-0.016364730854577028
10
2.6062993552741101
20
-0.017322836018453438
10
3.0984253395260786
20
-0.039074804604522825
10
3.6228348889688804
20
-0.062204727272349075
10
3.6212601999598224
20
-0.12125985359582374
10
3.0984253395260786
20
-0.11181102728280494
10
2.6060040541521206
20
-0.10393700731082224
10
2.1141733710221415
20
-0.09527559590151928
10
1.6217520856481835
20
-0.087401581796135483
10
1.4856792341066973
20
-0.085039375217880575
10
1.3496060277640904
20
-0.082682277780768795
10
1.3456693784458429
20
-0.13937007958494771
10
1.3732284072815901
20
-0.17559055502959123
10
2.105511830547663
20
-0.40551184669254331
10
2.0960631332998201
20
-0.44803150056854002
10
2.0716535763477713
20
-0.44251971357450709
0
LWPOLYLINE
5
329
100
AcDbEntity
8
0
100
AcDbPolyline
90
49
70
1
43
0.0
10
0.49606303530415208
20
-0.37874018582772079
10
0.48661419725793548
20
-0.37086615412254031
10
0.46176288889391814
20
-0.34540872421679369
10
0.4244094758521853
20
-0.36141733954271932
10
0.34960632718454193
20
-0.42992126284621829
10
0.34931104952894793
20
-0.42992126284621829
10
0.2422244295360535
20
-0.4118110251238965
10
0.15588050674590626
20
-0.38355303061682594
10
0.13385826912451915
20
-0.46141734273414908
10
0.11023622094176885
20
-0.49055120137732794
10
0.079527561824152784
20
-0.47874018901915061
10
0.077952761349715585
20
-0.47244096365500621
10
0.077165358179197535
20
-0.46929135097293401
10
0.074015751363724236
20
-0.44251971357450709
10
0.10314961587350199
20
-0.36771654144046811
10
0.077952761349715585
20
-0.2551181109871451
10
0.069635913585557527
20
-0.21699924734747664
10
0.049606300010455871
20
-0.20236220416121595
10
0.048031499536018665
20
-0.19763780860450322
10
0.037007875681862118
20
-0.15354331318787701
10
0.074803154534242272
20
-0.1236220513741801
10
0.10236221270298394
20
-0.085826775455099383
10
0.12598426088573425
20
-0.09527559590151928
10
0.12913386183460865
20
-0.098425196850393692
10
0.1157480314021974
20
-0.14960630906848454
10
0.12494799214279932
20
-0.17326332719197704
10
0.2456692964073241
20
-0.18110236549001976
10
0.28818899721611202
20
-0.15669292586994921
10
0.32125985997868334
20
-0.11968504725478765
10
0.34251971038307727
20
-0.091338585915527931
10
0.35905514176436293
20
-0.089763785441090732
10
0.36509188267433185
20
-0.09256343362606545
10
0.36614175856582759
20
-0.092913392256564031
10
0.36377953732107565
20
-0.13622047863607331
10
0.33622048501893287
20
-0.18110236549001976
10
0.25039371543043237
20
-0.23543309039018284
10
0.21732285266786108
20
-0.27716537629525489
10
0.22204724822457378
20
-0.31889766220032695
10
0.20206692650562194
20
-0.30787404127946988
10
0.16112205550426573
20
-0.25748033223189704
10
0.13543307546555525
20
-0.25275591320878876
10
0.15236221111575687
20
-0.28697437420260341
10
0.16929134139864463
20
-0.32047244507496747
10
0.24645671131103994
20
-0.34645671450246973
10
0.32598427900179161
20
-0.31102363049514647
10
0.35748033542332686
20
-0.27244095727214662
10
0.39842522989107865
20
-0.26614175537439777
10
0.49212598425196846
20
-0.31417324317721868
10
0.50157482229818506
20
-0.32125985997868334
0
LWPOLYLINE
5
330
100
AcDbEntity
8
0
100
AcDbPolyline
90
49
70
1
43
0.0
10
1.4338806175573084
20
-3.0508500194909418
10
1.2448819603506973
20
-2.6566929704561004
10
1.2096929610566749
20
-2.5834477101764
10
1.0393701200410137
20
-2.2283465843501054
10
0.89400680488857565
20
-1.9252828463531158
10
0.82047248449851207
20
-1.7716535433070866
10
0.77818527962738593
20
-1.683633535672032
10
0.6125984698768675
20
-1.337795370207058
10
0.51196606284793433
20
-1.1287611325613018
10
0.39606300864632671
20
-0.8866142100236547
10
0.35271321235204167
20
-0.79647416034126317
10
0.2456692964073241
20
-0.54488191454429324
10
0.24330709862896774
20
-0.49212598425196846
10
0.28346457819300369
20
-0.4559055557401161
10
0.28031496551093149
20
-0.4496063303759717
10
0.27963559872452992
20
-0.44934157696406002
10
0.27795276773257516
20
-0.4464567176938995
10
0.1724409540807168
20
-0.40472440832243189
10
0.14803150272744847
20
-0.46456695541622128
10
0.14896333886578389
20
-0.46736247424532568
10
0.14881890589796651
20
-0.46771656809829348
10
0.15118110367632287
20
-0.47401579346243788
10
0.17344217141388504
20
-0.51002630002388105
10
0.1677165467908063
20
-0.53937012755026026
10
0.1236220513741801
20
-0.59212601090979389
10
0.12468339461412246
20
-0.59651776520876065
10
0.12440945454469815
20
-0.59685040646650656
10
0.14724409955693041
20
-0.68976381632286732
10
0.14960630906848454
20
-0.69842521599897245
10
0.22491141145823335
20
-0.80854119866603447
10
0.20000000638285959
20
-0.8362205009760818
10
0.18110236549001976
20
-0.88740164839376612
10
0.18223502247974518
20
-0.89278940245694249
10
0.18188976866053783
20
-0.89370087375791052
10
0.18392177977277119
20
-0.90081286723183163
10
0.18474410368701602
20
-0.90472444774597638
10
0.24040355457095747
20
-1.0618110810677863
10
0.29576772779930294
20
-1.2188977143895907
10
0.29606300545489694
20
-1.2188977143895907
10
0.31889766220032695
20
-1.1913386855538435
10
0.25044869193088104
20
-0.93226299521093126
10
0.29030315129411588
20
-0.91741530659333703
10
0.52047245145782706
20
-1.3677166202875572
10
0.75039375485397697
20
-1.8188977804709605
10
0.97952761988001535
20
-2.2700788467887816
10
1.209448829410583
20
-2.7212599131066026
10
1.4393701328067328
20
-3.1716538226510593
10
1.4834646164901613
20
-3.155118086206631
10
1.4661418171379508
20
-3.1181104539886233
0
LWPOLYLINE
5
331
100
AcDbEntity
8
0
100
AcDbPolyline
90
43
70
1
43
0.0
10
1.8181102482352669
20
-1.4236221163291629
10
1.785826870775598
20
-1.3968504319979449
10
1.6201718099800979
20
-1.2655452672588801
10
1.5606300098689521
20
-1.2181102760194793
10
1.4093717533220691
20
-1.0976079124531097
10
1.3157481283653438
20
-1.0228346651933324
10
1.0811023824796901
20
-0.8354331564715527
10
0.94702781655864399
20
-0.728803354729051
10
0.85196851745365165
20
-0.65275594944090354
10
0.61940397793753654
20
-0.46747948613721613
10
0.56141736939197451
20
-0.41023624224925603
10
0.55118113990843765
20
-0.40157484257315085
10
0.45984255985950856
20
-0.39291339596425451
10
0.41023624224925603
20
-0.43149609265364997
10
0.337795291359969
20
-0.47165357221768595
10
0.27165356583482636
20
-0.488188980132576
10
0.27086615093111049
20
-0.51732283877575491
10
0.27246980923480596
20
-0.52071170296733815
10
0.27244095727214662
20
-0.52125988982793847
10
0.27438579186415479
20
-0.52476057354614758
10
0.27608268373594508
20
-0.52834645969661198
10
0.42913387140889803
20
-0.78267717924643687
10
0.4559055557401161
20
-0.75748037165544158
10
0.35669292051961099
20
-0.57086616050539984
10
0.35826772686064712
20
-0.5291338980667234
10
0.4118110251238965
20
-0.50787404766232946
10
0.44431417733317591
20
-0.51548114471262596
10
0.49291342262207988
20
-0.62283465242761327
10
0.49560348960004008
20
-0.62653712028874431
10
0.49606303530415208
20
-0.62755909491711703
10
0.49914577209697586
20
-0.63141253313437451
10
0.50206695954630687
20
-0.63543310315590207
10
0.9445866261880228
20
-1.1409449765062707
10
0.94488192731001241
20
-1.1409449765062707
10
0.96614182464719744
20
-1.1070866284407967
10
0.55118113990843765
20
-0.60472441470529148
10
0.5777931469369606
20
-0.5882876019283334
10
0.69787433851909253
20
-0.67558363671533306
10
0.81781496213177052
20
-0.76299215864947456
10
1.0587598395159863
20
-0.93779535744133891
10
1.2989173723956731
20
-1.1133858538049413
10
1.5401575509018783
20
-1.2881890056640144
10
1.7811024282860941
20
-1.4629921575230875
0
ENDSEC
0
SECTION
2
OBJECTS
0
DICTIONARY
5
C
100
AcDbDictionary
3
ACAD_GROUP
350
D
3
ACAD_MLINESTYLE
350
17
0
DICTIONARY
5
D
100
AcDbDictionary
0
DICTIONARY
5
1A
330
C
100
AcDbDictionary
0
DICTIONARY
5
17
100
AcDbDictionary
0
ENDSEC
0
EOF
