0
SECTION
2
HEADER
9
$INSUNITS
70
1
9
$ACADVER
1
AC1014
9
$HANDSEED
5
FFFF
0
ENDSEC
0
SECTION
2
TABLES
0
TABLE
2
VPORT
5
8
100
AcDbSymbolTable
0
ENDTAB
0
TABLE
2
LTYPE
5
5
100
AcDbSymbolTable
0
LTYPE
5
14
100
AcDbSymbolTableRecord
100
AcDbLinetypeTableRecord
2
BYBLOCK
70
0
0
LTYPE
5
15
100
AcDbSymbolTableRecord
100
AcDbLinetypeTableRecord
2
BYLAYER
70
0
0
ENDTAB
0
TABLE
2
LAYER
5
2
100
AcDbSymbolTable
70
2
0
LAYER
5
50
100
AcDbSymbolTableRecord
100
AcDbLayerTableRecord
2
0
70
0
6
CONTINUOUS
0
ENDTAB
0
TABLE
2
STYLE
5
3
100
AcDbSymbolTable
70
1
0
STYLE
5
11
100
AcDbSymbolTableRecord
100
AcDbTextStyleTableRecord
2
STANDARD
70
0
0
ENDTAB
0
TABLE
2
VIEW
5
6
100
AcDbSymbolTable
70
0
0
ENDTAB
0
TABLE
2
UCS
5
7
100
AcDbSymbolTable
70
0
0
ENDTAB
0
TABLE
2
APPID
5
9
100
AcDbSymbolTable
70
2
0
APPID
5
12
100
AcDbSymbolTableRecord
100
AcDbRegAppTableRecord
2
ACAD
70
0
0
ENDTAB
0
TABLE
2
DIMSTYLE
5
A
100
AcDbSymbolTable
70
1
0
ENDTAB
0
TABLE
2
BLOCK_RECORD
5
1
100
AcDbSymbolTable
70
1
0
BLOCK_RECORD
5
1F
100
AcDbSymbolTableRecord
100
AcDbBlockTableRecord
2
*MODEL_SPACE
0
BLOCK_RECORD
5
1B
100
AcDbSymbolTableRecord
100
AcDbBlockTableRecord
2
*PAPER_SPACE
0
ENDTAB
0
ENDSEC
0
SECTION
2
BLOCKS
0
BLOCK
5
20
100
AcDbEntity
100
AcDbBlockBegin
2
*MODEL_SPACE
0
ENDBLK
5
21
100
AcDbEntity
100
AcDbBlockEnd
0
BLOCK
5
1C
100
AcDbEntity
100
AcDbBlockBegin
2
*PAPER_SPACE
0
ENDBLK
5
1D
100
AcDbEntity
100
AcDbBlockEnd
0
ENDSEC
0
SECTION
2
ENTITIES
0
LWPOLYLINE
5
100
100
AcDbEntity
8
0
100
AcDbPolyline
90
6
70
1
43
0.0
10
-1.899560229984794
20
-0.37533225506309442
10
-2.1192558168426272
20
-0.22399054737541618
10
-8.1700077207069697
20
-0.076115395375124129
10
-2.0661802742424911
20
-0.022299200531065932
10
-1.9122570518433577
20
-0.016990622256215251
10
-1.8992649288628043
20
-0.37533225506309448
0
LWPOLYLINE
5
101
100
AcDbEntity
8
0
100
AcDbPolyline
90
8
70
1
43
0.0
10
-3.2451419937289474
20
0.163985974135816
10
-2.5527807671254075
20
0.17349858452954628
10
-2.552485466003418
20
0.37890208049083318
10
-2.9483759497094342
20
0.5196437122314933
10
-2.9480806485874442
20
0.5196437122314933
10
-2.4345685177900656
20
0.45878305209903264
10
-2.4307648966631548
20
0.082208503653683998
10
-3.937358180368979
20
0.15447941117399319
0
LWPOLYLINE
5
102
100
AcDbEntity
8
0
100
AcDbPolyline
90
15
70
1
43
0.0
10
-1.571107098436731
20
0.38650796169371116
10
-2.118853133515481
20
0.40171621829610549
10
-2.118853884419118
20
0.10883193316422105
10
-2.3280626206886108
20
0.10122523063749778
10
-2.3283579218106003
20
0.10122523063749778
10
-2.3318681191271682
20
0.55007127326304517
10
-1.7346733198391169
20
0.55767875018082258
10
-1.749888555271419
20
0.83155153304573115
10
-2.0465843320831536
20
1.067387400649664
10
-1.9058437797966903
20
1.2385578606072372
10
-2.8038334658765414
20
2.0335507205152132
10
-2.8035381647545519
20
2.0335507205152132
10
-1.6928291696263109
20
1.299418520739698
10
-1.8069432476374105
20
1.124444533520796
10
-1.5825189004732867
20
0.97609608192143482
0
LWPOLYLINE
5
103
100
AcDbEntity
8
0
100
AcDbPolyline
90
4
70
1
43
0.0
10
-3.4159461344320938
20
0.97609608192143471
10
-1.8183550496739664
20
0.78971141905296505
10
-1.8259613532719647
20
0.63375549053582614
10
-1.8262566543939545
20
0.63375549053582614
0
LWPOLYLINE
5
104
100
AcDbEntity
8
0
100
AcDbPolyline
90
5
70
1
43
0.0
10
-1.6679957106996892
20
1.1302597929472797
10
-1.704537399171844
20
1.1472692639808955
10
-1.5901276445764254
20
1.246167731097364
10
-1.5901270813829316
20
1.094013405597116
10
-1.5901270813829316
20
1.0937181044751263
0
LWPOLYLINE
5
105
100
AcDbEntity
8
0
100
AcDbPolyline
90
6
70
1
43
0.0
10
-1.2567350649778659
20
1.2803223635760326
10
-1.2582783623943177
20
1.3682452712472029
10
-1.2579834367346574
20
1.3682452712472029
10
-1.1406027425931193
20
1.2816098731333814
10
-1.2551878380963182
20
1.1921755910858394
10
-1.2554835146806371
20
1.1921755910858394
0
LINE
5
106
100
AcDbEntity
8
0
100
AcDbLine
10
-0.66210313106146379
20
0.27816898710145721
30
0
11
-1.3294874213811918
21
0.27816898710145721
31
0
0
LINE
5
107
100
AcDbEntity
8
0
100
AcDbLine
10
-1.3294874213811918
20
0.27816898710145721
30
0
11
-1.3363326628377117
21
1.3767838478088381
31
0
0
LINE
5
108
100
AcDbEntity
8
0
100
AcDbLine
10
-1.3363326628377117
20
1.3767838478088381
30
0
11
-4.4763426142414717
21
4.268913569412832
31
0
0
LINE
5
109
100
AcDbEntity
8
0
100
AcDbLine
10
-0.66210313106146379
20
0.27816898710145721
30
0
11
-0.68948306436613782
21
0.12073654124117274
31
0
0
LINE
5
110
100
AcDbEntity
8
0
100
AcDbLine
10
-4.4763426142414717
20
4.268913569412832
30
0
11
-4.4766377276322968
21
4.268913569412832
31
0
0
LINE
5
111
100
AcDbEntity
8
0
100
AcDbLine
10
-1.5108767456895722
20
1.3288669698820339
30
0
11
-4.4766377276322968
21
4.268913569412832
31
0
0
LINE
5
112
100
AcDbEntity
8
0
100
AcDbLine
10
-0.68948306436613782
20
0.12073654124117274
30
0
11
-1.48349728171281
21
0.1173111866778276
31
0
0
LINE
5
113
100
AcDbEntity
8
0
100
AcDbLine
10
-1.48349728171281
20
0.1173111866778276
30
0
11
-1.5108767456895722
21
1.3288669698820339
31
0
0
LINE
5
114
100
AcDbEntity
8
0
100
AcDbLine
10
-1.2523937413072961
20
0.37611018954299563
30
0
11
-0.77478580587492207
21
0.37611018954299563
31
0
0
LINE
5
115
100
AcDbEntity
8
0
100
AcDbLine
10
-0.77449055168572367
20
0.37611018954299563
30
0
11
-1.246802731761782
21
0.92108503101378902
31
0
0
LINE
5
116
100
AcDbEntity
8
0
100
AcDbLine
10
-0.77449055168572367
20
0.37611018954299563
30
0
11
-0.77478580587492207
21
0.37611018954299563
31
0
0
LINE
5
117
100
AcDbEntity
8
0
100
AcDbLine
10
-1.246802731761782
20
0.92108503101378902
30
0
11
-1.247098408346101
21
0.92108503101378902
31
0
0
LINE
5
118
100
AcDbEntity
8
0
100
AcDbLine
10
-1.2523937413072961
20
0.37611018954299563
30
0
11
-1.247098408346101
21
0.92108503101378902
31
0
0
LWPOLYLINE
5
119
100
AcDbEntity
8
0
100
AcDbPolyline
90
7
70
1
43
0.0
10
-0.52902360600749321
20
1.5186165261456346
10
-1.0303609953151913
20
1.0486125946044922
10
-0.61910903359961311
20
0.60602557940745905
10
-0.62694174098217581
20
0.37885855032703064
10
-0.62723699517137421
20
0.37885855032703064
10
-1.2379464202039823
20
1.0564476486266128
10
-0.64652402569928502
20
1.6322023286594178
0
LWPOLYLINE
5
120
100
AcDbEntity
8
0
100
AcDbPolyline
90
5
70
1
43
0.0
10
-0.90209883967722482
20
1.0365121946560116
10
-0.74488070067458256
20
1.1632082969184934
10
-0.74458544648538416
20
1.1632082969184934
10
-0.26519810120890458
20
0.68382005991898165
10
-0.41928582304105988
20
0.58794289123354926
0
LWPOLYLINE
5
121
100
AcDbEntity
8
0
100
AcDbPolyline
90
5
70
1
43
0.0
10
-0.6897968570078451
20
1.2488149282500498
10
-0.58051807673897327
20
1.3241464697469876
10
-0.58022282254977486
20
1.3241464697469876
10
-0.15562173184447392
20
0.95433428531556597
10
-0.15904712160741241
20
0.71806494645246366
0
LWPOLYLINE
5
122
100
AcDbEntity
8
0
100
AcDbPolyline
90
6
70
1
43
0.0
10
-0.53235723324297179
20
0.5172352786030997
10
-0.52797005871149494
20
0.56560199091753616
10
-0.52767560237974631
20
0.56560199091753616
10
-0.46406219324727693
20
0.54136852579792649
10
-0.53676258860610593
20
0.46866813043909744
10
-0.53705826519042488
20
0.46866813043909744
0
LWPOLYLINE
5
123
100
AcDbEntity
8
0
100
AcDbPolyline
90
10
70
1
43
0.0
10
-0.51888227462768555
20
1.3789374058640846
10
-0.3781957419838492
20
1.5193279333940639
10
-0.86443349132387648
20
1.9678992549265462
10
-1.1280972187913307
20
1.9096877631240001
10
-2.2991771773090512
20
3.498519687202033
10
-1.1144015732712631
20
2.1493823509516679
10
-0.82334373879620404
20
2.2007455975990595
10
-0.14192633272155999
20
1.6631453056035077
10
-0.13165346046132365
20
1.3378448373689424
10
-0.15904712160741249
20
1.0810299182501364
0
LWPOLYLINE
5
124
100
AcDbEntity
8
0
100
AcDbPolyline
90
6
70
1
43
0.0
10
-1.0871572729262815
20
1.6050589789308707
10
-0.86100983807421094
20
1.8035353638055756
10
-0.71718974376287981
20
1.6973846540676325
10
-1.0904291483360951
20
1.3549641361386755
10
-1.8642996239849901
20
2.1185617747269276
10
-1.7889685518159639
20
2.1904712586890991
0
LINE
5
125
100
AcDbEntity
8
0
100
AcDbLine
10
-0.66240589449724807
20
2.4644081986795259
30
0
11
-1.4724515554473152
21
4.4603426625409464
31
0
0
LINE
5
126
100
AcDbEntity
8
0
100
AcDbLine
10
-0.66240589449724807
20
2.4644081986795259
30
0
11
-0.52543545332480601
21
2.5191949108454184
31
0
0
LINE
5
127
100
AcDbEntity
8
0
100
AcDbLine
10
-0.52543545332480601
20
2.5191949108454184
30
0
11
-0.44354960674375998
21
3.0739157218632731
31
0
0
LINE
5
128
100
AcDbEntity
8
0
100
AcDbLine
10
-0.44325435255456153
20
3.0739157218632731
30
0
11
-0.44354960674375998
21
3.0739157218632731
31
0
0
LINE
5
129
100
AcDbEntity
8
0
100
AcDbLine
10
-0.60077009238596035
20
2.1493814122958446
30
0
11
-0.34395374181702371
21
2.4059019689484842
31
0
0
LINE
5
130
100
AcDbEntity
8
0
100
AcDbLine
10
-0.60077009238596035
20
2.1493814122958446
30
0
11
-0.80622162405900122
21
2.3342909775381013
31
0
0
LINE
5
131
100
AcDbEntity
8
0
100
AcDbLine
10
-0.82254416991290147
20
2.3863775036930726
30
0
11
-1.4724515554473152
21
4.4603426625409464
31
0
0
LINE
5
132
100
AcDbEntity
8
0
100
AcDbLine
10
-0.34395374181702376
20
2.4061972700704737
30
0
11
-0.44325435255456153
21
3.0739157218632731
31
0
0
LINE
5
133
100
AcDbEntity
8
0
100
AcDbLine
10
-0.34395374181702376
20
2.4061972700704737
30
0
11
-0.34395374181702371
21
2.4059019689484842
31
0
0
LWPOLYLINE
5
134
100
AcDbEntity
8
0
100
AcDbPolyline
90
6
70
1
43
0.0
10
-0.19030370346204498
20
6.7080114770123336
10
-0.020897212460285097
20
2.3249275102390077
10
-0.36546989219395198
20
1.981004392068217
10
-0.51171807792243051
20
2.092294054707204
10
-0.21768834177903301
20
2.3828330002431795
10
-0.19059898111763901
20
6.7080114770123336
0
LWPOLYLINE
5
135
100
AcDbEntity
8
0
100
AcDbPolyline
90
6
70
1
43
0.0
10
-0.17794964351053311
20
1.8239920533548188
10
-0.29279913489274151
20
1.9297342600784901
10
0.077596142536073207
20
2.2616519702701114
10
0.18891814186817077
20
3.4718250665139023
10
0.18921341952376478
20
3.4718250665139023
10
0.22739721095468113
20
2.2175940941637893
0
LWPOLYLINE
5
136
100
AcDbEntity
8
0
100
AcDbPolyline
90
8
70
1
43
0.0
10
0.0032264673275740189
20
1.8889335196787915
10
0.33901861802799493
20
2.1294725222850408
10
0.34489331282968594
20
2.4702023333451879
10
0.8028180580439529
20
3.5951880958136608
10
0.80311335916594251
20
3.5951880958136608
10
0.55344132926520395
20
2.4055807609257736
10
0.5505039466647651
20
2.1324114536675878
10
0.54756576620687636
20
1.8782865344070072
0
LWPOLYLINE
5
137
100
AcDbEntity
8
0
100
AcDbPolyline
90
9
70
1
43
0.0
10
0.36183046543692038
20
1.6325991923414815
10
0.10749321067983833
20
1.6354887764687933
10
0.069920824268671466
20
0.739530315549355
10
-0.04279744026698467
20
0.7421279516745739
10
-0.042797440266984649
20
0.74242320586377231
10
-0.031236245289562252
20
1.7915626210490547
10
0.51789879798889149
20
1.8089046628456416
10
0.52656967808881139
20
0.53722206063157929
10
0.38495204580111764
20
0.66438702147776696
0
LWPOLYLINE
5
138
100
AcDbEntity
8
0
100
AcDbPolyline
90
4
70
1
43
0.0
10
0.27512673317916747
20
0.69906969708720523
10
0.16500204801559445
20
0.72508111713439449
10
0.19130858145360871
20
1.5458948968902346
10
0.24622286867907664
20
1.5487846427076444
0
LWPOLYLINE
5
139
100
AcDbEntity
8
0
100
AcDbPolyline
90
4
70
1
43
0.0
10
0.89071848261074749
20
1.9196943973931739
10
0.94978424507801917
20
1.965128342936358
10
1.0361106376948319
20
1.8788003546046459
10
0.8725441346956988
20
1.7016050383800596
0
LWPOLYLINE
5
140
100
AcDbEntity
8
0
100
AcDbPolyline
90
9
70
1
43
0.0
10
2.4320795780091773
20
4.8752322910338872
10
0.63264407510832532
20
2.2106842731866307
10
0.62890949211721336
20
1.0724310799846495
10
1.0177933324979045
20
0.66321102652962749
10
1.3547979940579631
20
0.6563314772027683
10
1.3547995897728626
20
0.65633344837999719
10
0.79770942372599918
20
1.1996669093454915
10
0.80458704880842069
20
2.0421807221540313
10
2.4320803289338357
20
4.8749371776430621
0
LWPOLYLINE
5
141
100
AcDbEntity
8
0
100
AcDbPolyline
90
5
70
1
43
0.0
10
3.842498240806671
20
4.3830325813836213
10
6.7924762335349254
20
7.2168778246781953
10
6.7927713469257496
20
7.2168778246781953
10
0.9075101904981725
20
1.2282208194882851
10
0.89034837061964611
20
1.5473846375472902
0
LINE
5
142
100
AcDbEntity
8
0
100
AcDbLine
10
1.4195653397267258
20
1.2781684792886567
30
0
11
1.2826259680620327
21
1.4001688619298258
31
0
0
LINE
5
143
100
AcDbEntity
8
0
100
AcDbLine
10
1.4195653397267258
20
1.2781684792886567
30
0
11
1.3025456526148036
21
1.1536791568665992
31
0
0
LINE
5
144
100
AcDbEntity
8
0
100
AcDbLine
10
1.2826259680620327
20
1.4001688619298258
30
0
11
1.01622202264981
21
1.1486992122620108
31
0
0
LINE
5
145
100
AcDbEntity
8
0
100
AcDbLine
10
1.3025456526148036
20
1.1536791568665992
30
0
11
1.5091972088250587
21
0.96694484470397457
31
0
0
LINE
5
146
100
AcDbEntity
8
0
100
AcDbLine
10
1.5116893400357463
20
0.65074173484261577
30
0
11
1.5091842076723159
21
0.96859443879896934
31
0
0
LINE
5
147
100
AcDbEntity
8
0
100
AcDbLine
10
1.5116893400357463
20
0.65074173484261577
30
0
11
1.5116885891110876
21
0.650740936985166
31
0
0
LINE
5
148
100
AcDbEntity
8
0
100
AcDbLine
10
1.01622202264981
20
1.1486992122620108
30
0
11
1.5116885891110876
21
0.650740936985166
31
0
0
LWPOLYLINE
5
149
100
AcDbEntity
8
0
100
AcDbPolyline
90
4
70
1
43
0.0
10
1.5166689091780052
20
1.0839650011438084
10
1.4118015296815887
20
1.1536791568665992
10
1.5067098647590695
20
1.2109444835993248
10
1.5166689091780052
20
1.0842603022657979
0
LWPOLYLINE
5
150
100
AcDbEntity
8
0
100
AcDbPolyline
90
10
70
1
43
0.0
10
1.7803622043038916
20
0.58566064346493685
10
1.7769689635028987
20
1.2858527851855659
10
1.4599201247448057
20
1.5984492039117286
10
1.3534239896639124
20
1.4696504187396191
10
1.6184461398387517
20
1.1982287008931316
10
1.6036236380028912
20
0.54112954402533098
10
1.1336559385765255
20
0.53898110164432067
10
1.1348299154146448
20
0.39981340798806014
10
1.1351252165366346
20
0.39981340798806014
10
1.6305527349156657
20
0.40777166058698033
0
LWPOLYLINE
5
151
100
AcDbEntity
8
0
100
AcDbPolyline
90
7
70
1
43
0.0
10
0.90738309649970583
20
0.53212206194719924
10
1.0520294895322304
20
0.53359368654686634
10
1.0523247906542199
20
0.53359368654686634
10
1.0510512224332553
20
0.30824239329090269
10
1.6722810549998846
20
0.31169901682635925
10
1.8093861932829607
20
0.16502834211184284
10
0.90565906734917101
20
0.15329709203224487
0
LWPOLYLINE
5
152
100
AcDbEntity
8
0
100
AcDbPolyline
90
15
70
1
43
0.0
10
0.73861376507075749
20
0.21141307560477662
10
0.62720752137852465
20
0.43721771615696703
10
0.62750155531515284
20
0.8852452743710495
10
0.62750432434983139
20
0.8852452743710495
10
0.81388387154406439
20
0.7096188744222085
10
0.81030120999794297
20
0.36911870550921577
10
0.82105079035120676
20
0.085966459174794424
10
1.4375322447048395
20
0.082381849917839825
10
1.4518688982865942
20
-0.071739370194007085
10
1.4554527800852857
20
-0.24378205847552439
10
1.4551574789632962
20
-0.24378205847552439
10
1.2188956493467795
20
-0.23661417754616323
10
1.2081428775637169
20
-0.060987478400778575
10
0.83180159095704076
20
-0.064571418865459168
10
0.74936771017359927
20
-0.060987478400778575
0
LWPOLYLINE
5
153
100
AcDbEntity
8
0
100
AcDbPolyline
90
16
70
1
43
0.0
10
1.1315031314459372
20
-0.34020245075225825
10
1.1247377695999745
20
-0.18971531879244824
10
0.9396429136982114
20
-0.18723806527655892
10
0.93980117107000871
20
-0.48527755136564954
10
1.7142981056153304
20
-0.5016559221613125
10
1.7021173567283809
20
-0.073981613624752876
10
1.8138354218850923
20
-0.079826734901413191
10
2.1243992752916228
20
-0.33094343237989526
10
2.5528282631100629
20
-0.33678201239878736
10
3.5851061813474638
20
-0.71058935067785067
10
3.6488994838684561
20
-0.61832872901375846
10
2.5521862225269705
20
-0.12765401226329051
10
2.1237562960527074
20
-0.12181381306310335
10
1.9421823381438967
20
0.06506184893330251
10
1.5313712630684919
20
0.07674299239173657
10
1.5482614359517735
20
-0.3320937316248736
0
LWPOLYLINE
5
154
100
AcDbEntity
8
0
100
AcDbPolyline
90
7
70
1
43
0.0
10
2.212718903549074
20
-0.020199106258200934
10
1.7320764346385564
20
0.36595398046838951
10
1.842620429091566
20
0.50136888121056744
10
2.2371307132750982
20
0.13171192698591336
10
9.5980201180525651
20
0.20243405826448455
10
9.5983152314433884
20
0.20243405826448449
10
2.2130142046710635
20
-0.020199101858251675
0
LWPOLYLINE
5
155
100
AcDbEntity
8
0
100
AcDbPolyline
90
6
70
1
43
0.0
10
2.0709732386070909
20
0.44506731934434784
10
1.8850491741510824
20
0.582729925320843
10
1.8743807875265286
20
1.141881848883441
10
2.8788752443208465
20
1.6354003290491779
10
2.8788752443208465
20
1.6351050279271884
10
2.0756514992300916
20
0.93886495575191464
0
LWPOLYLINE
5
156
100
AcDbEntity
8
0
100
AcDbPolyline
90
10
70
1
43
0.0
10
2.8870118884589724
20
1.0424972519161193
10
2.3547763899555356
20
0.7515440775653508
10
2.3474047503133457
20
0.36513314941736646
10
4.681094612662247
20
0.39825669423801691
10
4.6671574509988618
20
0.29862602864663429
10
2.4857838322797159
20
0.22348759211893154
10
2.2765024440495045
20
0.23045912971646765
10
2.1773047334565887
20
0.35747437495884937
10
2.1709708716925671
20
0.82069372567604837
10
2.8867165873369829
20
1.0424972519161193
0
LWPOLYLINE
5
157
100
AcDbEntity
8
0
100
AcDbPolyline
90
4
70
1
43
0.0
10
2.6569315767663668
20
0.60747322135084247
10
2.7557673416738431
20
0.47144842898751804
10
2.4931960218534694
20
0.47107639275197905
10
2.4892645558034339
20
0.60752400263087947
0
LWPOLYLINE
5
158
100
AcDbEntity
8
0
100
AcDbPolyline
90
5
70
1
43
0.0
10
2.9127109707809806
20
-0.20530578189008816
10
2.7114637254729983
20
-0.083093544629615115
10
3.0094353232796736
20
-0.074364485468451424
10
3.0097306244016631
20
-0.074364485468451452
10
2.9130062719029701
20
-0.20530578189008816
0
LWPOLYLINE
5
159
100
AcDbEntity
8
0
100
AcDbPolyline
90
7
70
1
43
0.0
10
2.4453268276424858
20
-0.75018781376635923
10
2.1111118511890798
20
-0.55150197246881916
10
2.1054294165663832
20
-0.41809330775043152
10
2.1057247176883727
20
-0.41809330775043152
10
2.5451299712413875
20
-0.42960789259963145
10
2.6744617251899299
20
-0.50579370476129482
10
2.4456221287644753
20
-0.75018781376635923
0
LWPOLYLINE
5
160
100
AcDbEntity
8
0
100
AcDbPolyline
90
7
70
1
43
0.0
10
1.9885203969760201
20
-0.3770181982536015
10
1.8188476562499998
20
-0.24294153911860908
10
1.8185523551280103
20
-0.24294153911860908
10
1.8413472363329308
20
-0.74839685845562787
10
7.0942758575199152
20
-3.4624783072884626
10
7.0942758575199152
20
-3.4621831938976375
10
2.0054873519056424
20
-0.62096851078544069
0
LINE
5
161
100
AcDbEntity
8
0
100
AcDbLine
10
1.7152016557107759
20
-0.55150788600050549
30
0
11
1.7152016557107759
21
-0.551803140189704
31
0
0
LINE
5
162
100
AcDbEntity
8
0
100
AcDbLine
10
1.714859797259954
20
-0.68189525228785708
30
0
11
1.5405582630728172
21
-0.56721417922673256
31
0
0
LINE
5
163
100
AcDbEntity
8
0
100
AcDbLine
10
1.7152016557107759
20
-0.55150788600050549
30
0
11
1.5405582630728172
21
-0.56721417922673256
31
0
0
LWPOLYLINE
5
164
100
AcDbEntity
8
0
100
AcDbPolyline
90
7
70
1
43
0.0
10
1.4141527686532087
20
-0.57754131752674964
10
1.1182066962474912
20
-0.57252598559762546
10
1.1179113951255018
20
-0.57252598559762546
10
1.5207653909217653
20
-0.92137873642087909
10
1.239013390278253
20
-1.1901940886429914
10
1.3585263349878505
20
-1.3071181267265259
10
1.8355405236792375
20
-0.89774760674303899
0
LWPOLYLINE
5
165
100
AcDbEntity
8
0
100
AcDbPolyline
90
4
70
1
43
0.0
10
1.2149362113532118
20
-0.80549444739274145
10
1.4047386139396607
20
-0.93062008459736978
10
1.2299523578854057
20
-1.0628547255448468
10
1.2146409102312221
20
-0.80549444739274145
0
LWPOLYLINE
5
166
100
AcDbEntity
8
0
100
AcDbPolyline
90
7
70
1
43
0.0
10
0.54030394929600511
20
-0.52691693381061699
10
0.82835315719364189
20
-0.29446865160634195
10
0.8286484583156315
20
-0.29446865160634195
10
0.84382483339685144
20
-0.4967448748941497
10
1.1407984523322638
20
-0.72627480574480185
10
1.1594980720459944
20
-1.112169261992447
10
0.67487438832681002
20
-0.67146378239308746
0
LWPOLYLINE
5
167
100
AcDbEntity
8
0
100
AcDbPolyline
90
6
70
1
43
0.0
10
0.7202126144424198
20
-0.2174478874901149
10
0.7291523959693007
20
-0.16443775160106147
10
0.72944765015849911
20
-0.16443775160106147
10
0.84152831805972594
20
-0.17352499595777254
10
0.71127283291553878
20
-0.27045802337916813
10
0.71097757872634038
20
-0.27045802337916813
0
LWPOLYLINE
5
168
100
AcDbEntity
8
0
100
AcDbPolyline
90
9
70
1
43
0.0
10
2.3974405498955194
20
-1.3500512115598662
10
2.323550877608652
20
-1.4070996149318424
10
2.3232555764866625
20
-1.4070996149318424
10
1.9204453220517614
20
-1.1567377668666088
10
1.7263817974901574
20
-1.369009430952898
10
4.2404212350920423
20
-3.5358804417407415
10
4.2401261217012181
20
-3.5358804417407415
10
1.3984543132031058
20
-1.393199999501386
10
1.9143913674542283
20
-0.94602680581761145
0
LWPOLYLINE
5
169
100
AcDbEntity
8
0
100
AcDbPolyline
90
6
70
1
43
0.0
10
0.084456772081495268
20
-1.136722057823121
10
0.05278003614718519
20
-0.92094883205383771
10
0.4882559062927726
20
-0.60161338077755422
10
1.6984870114664392
20
-1.7899396851306824
10
1.620320072324257
20
-1.8442948033490518
10
0.50671339973690011
20
-0.83678697976540384
0
LWPOLYLINE
5
170
100
AcDbEntity
8
0
100
AcDbPolyline
90
5
70
1
43
0.0
10
0.35594347424394501
20
-1.0588822402353362
10
0.51277012336911176
20
-0.95680238693717889
10
0.51306537755831017
20
-0.95680238693717889
10
2.3813103127667281
20
-2.7633969239362579
10
2.3148878352848565
20
-2.8581401494544325
0
LWPOLYLINE
5
171
100
AcDbEntity
8
0
100
AcDbPolyline
90
9
70
1
43
0.0
10
1.1665039175138698
20
-2.0509366914043277
10
0.88952404307568156
20
-1.8982981133648729
10
0.83450154056699255
20
-1.9374012008426695
10
3.5967579038124389
20
-7.6554726427934305
10
3.5964627904216133
20
-7.6554726427934296
10
2.0399477745698631
20
-4.7404850691211466
10
0.48239489239970523
20
-1.824106757096418
10
0.76038109974598311
20
-1.5861062552985243
10
1.2478862221785416
20
-1.9998144915723424
0
LWPOLYLINE
5
172
100
AcDbEntity
8
0
100
AcDbPolyline
90
11
70
1
43
0.0
10
0.705860637304351
20
-1.5163086530730479
10
0.58307520986541983
20
-1.6161141433115078
10
0.58277995567622143
20
-1.6161141433115078
10
0.24659262867424431
20
-1.3672747949915607
10
0.22296248458501858
20
-1.8367070851363534
10
-0.46433975377420728
20
-1.8919862161471148
10
-0.71369958674813816
20
-2.6192015550267977
10
-0.63064370568343042
20
-1.6938917280182124
10
0.040998503448456285
20
-1.6757764215544451
10
0.036733814581172579
20
-1.264268488395871
10
0.29112314145396062
20
-1.1033071307685431
0
LWPOLYLINE
5
173
100
AcDbEntity
8
0
100
AcDbPolyline
90
6
70
1
43
0.0
10
0.30829306897215952
20
-1.6812429184050071
10
0.30127573670364738
20
-1.5355850767901562
10
0.30157101435924138
20
-1.5355850767901562
10
0.51868266946687469
20
-1.6757463845681015
10
0.31531040124067172
20
-1.8269007600198579
10
0.31501512358507772
20
-1.8269007600198579
0
LINE
5
174
100
AcDbEntity
8
0
100
AcDbLine
10
0.1328318841814056
20
-1.951214647668553
30
0
11
0.29391034079915007
21
-3.6911699131799227
31
0
0
LINE
5
175
100
AcDbEntity
8
0
100
AcDbLine
10
0.13283149698587851
20
-1.9509193465465635
30
0
11
0.1328318841814056
21
-1.951214647668553
31
0
0
LINE
5
176
100
AcDbEntity
8
0
100
AcDbLine
10
0.13283149698587851
20
-1.9509193465465635
30
0
11
0.42323976989806167
21
-1.9367634780763638
31
0
0
LINE
5
177
100
AcDbEntity
8
0
100
AcDbLine
10
0.2934347926162359
20
-3.686033083697942
30
0
11
0.39102514897744484
21
-3.6595337034210442
31
0
0
LINE
5
178
100
AcDbEntity
8
0
100
AcDbLine
10
0.42323976989806167
20
-1.9367634780763638
30
0
11
0.70531968995342098
21
-2.6345153493205391
31
0
0
LINE
5
179
100
AcDbEntity
8
0
100
AcDbLine
10
0.70531889209597121
20
-2.6345153493205391
30
0
11
0.70531968995342098
21
-2.6345153493205391
31
0
0
LINE
5
180
100
AcDbEntity
8
0
100
AcDbLine
10
0.42455233926848163
20
-2.2325213499895229
30
0
11
0.63926417996564244
21
-2.6495535542645792
31
0
0
LINE
5
181
100
AcDbEntity
8
0
100
AcDbLine
10
0.3030202050847331
20
-2.3006136961809291
30
0
11
0.42455233926848163
21
-2.2325213499895229
31
0
0
LINE
5
182
100
AcDbEntity
8
0
100
AcDbLine
10
0.63926417996564244
20
-2.6495535542645792
30
0
11
0.70531889209597121
21
-2.6345153493205391
31
0
0
LINE
5
183
100
AcDbEntity
8
0
100
AcDbLine
10
0.3030202050847331
20
-2.3006136961809291
30
0
11
0.39102514897744484
21
-3.6595337034210442
31
0
0
LWPOLYLINE
5
184
100
AcDbEntity
8
0
100
AcDbPolyline
90
5
70
1
43
0.0
10
-0.080159565378157979
20
-1.9619115237382256
10
0.039281417417713974
20
-1.9527125546312707
10
0.039576692140008515
20
-1.9527125546312707
10
-0.021974378683435634
20
-5.9361142436350409
10
-0.19989701237265517
20
-1.971110584228996
0
LWPOLYLINE
5
185
100
AcDbEntity
8
0
100
AcDbPolyline
90
4
70
1
43
0.0
10
-0.26324424218005082
20
-1.9876744803481212
10
-0.26324464110877566
20
-2.1291862322589541
10
-0.42249015935762657
20
-1.9816665198859265
10
-0.26324424218005082
20
-1.9873791792261317
0
LWPOLYLINE
5
186
100
AcDbEntity
8
0
100
AcDbPolyline
90
7
70
1
43
0.0
10
-1.5615641601442352
20
-3.4403320372573969
10
-0.97903745380912233
20
-1.6583716775488664
10
-1.4140121580108882
20
-1.2275917323555532
10
-1.4008432861388198
20
-0.94489056294358609
10
-1.4005479850168303
20
-0.94489056294358609
10
-0.79476373402152467
20
-1.5282389685863584
10
-0.7543779733612781
20
-1.7526023969875544
0
LWPOLYLINE
5
187
100
AcDbEntity
8
0
100
AcDbPolyline
90
14
70
1
43
0.0
10
-1.4527114357535293
20
-0.47831967121034152
10
-1.4413579242435965
20
-0.39288807572342277
10
-1.8216200700895053
20
-0.38900750828540226
10
-1.8219153712114948
20
-0.26085972785949707
10
-1.2624346365140178
20
-0.23756149246936706
10
-1.2430189162727414
20
-0.63364726351940726
10
-1.5342590377086729
20
-0.64529645161365889
10
-1.5187259734146237
20
-1.2860252162602943
10
-1.3284487987127829
20
-1.4918354552561841
10
-5.4995431674747008
20
-5.1547125568540073
10
-5.499838280865526
20
-5.1547125568540073
10
-1.5303763817614457
20
-1.5073692704748918
10
-1.6779381459153542
20
-1.3287413777328849
10
-1.6934700838224155
20
-0.47443621740566461
0
LWPOLYLINE
5
188
100
AcDbEntity
8
0
100
AcDbPolyline
90
9
70
1
43
0.0
10
-3.1080315432210606
20
-1.915185845743014
10
-1.9825854639368732
20
-1.1358255476463497
10
-2.4037209082776165
20
-0.64511810700724437
10
-2.1673217533141607
20
-0.58738781711247956
10
-2.1670264521921712
20
-0.58738781711247956
10
-1.8148713224516138
20
-1.0492303240017626
10
-1.8379633820901704
20
-1.233967364303709
10
-3.0387542379184032
20
-1.984460710540531
10
-3.0390495390403927
20
-1.984460710540531
0
LWPOLYLINE
5
189
100
AcDbEntity
8
0
100
AcDbPolyline
90
9
70
1
43
0.0
10
-2.9294514476094471
20
-0.46042021280169743
10
-2.1846405164463309
20
-0.33914913812021569
10
-2.1843452153243414
20
-0.33914913812021569
10
-1.8148713224516138
20
-0.55852203857241656
10
-1.8148720733762724
20
-0.85294800480519684
10
-1.8151673744982619
20
-0.85294800480519684
10
-2.1728003118920514
20
-0.48347242235198729
10
-3.6737888816773419
20
-0.58161419207655529
10
-3.674083995068167
20
-0.58161419207655529
0
LWPOLYLINE
5
190
100
AcDbEntity
8
0
100
AcDbPolyline
90
3
70
1
43
0.0
10
-1.3149239885525439
20
-0.73665863885654237
10
-1.4388613813505398
20
-0.86502127760038594
10
-1.4429948461337352
20
-0.73665863885654237
0
LWPOLYLINE
5
191
100
AcDbEntity
8
0
100
AcDbPolyline
90
8
70
1
43
0.0
10
-1.0571216973732775
20
-0.87411807278009845
10
-0.82125119336946739
20
-0.62899922761391458
10
-0.83512518349594955
20
-0.37000061958793584
10
-1.3114936708465335
20
-0.89261888519046806
10
-1.0048134120430532
20
-1.1725173221798393
10
-0.80594171689251271
20
-1.015269286989227
10
-0.80444925413356982
20
-0.75768110320324022
10
-1.0171964412599097
20
-0.92880434877290496
0
LWPOLYLINE
5
192
100
AcDbEntity
8
0
100
AcDbPolyline
90
5
70
1
43
0.0
10
-0.93687481767549285
20
-1.2487405867088497
10
-0.79379447801845271
20
-1.1099909234234666
10
-0.79349917689646321
20
-1.1099909234234666
10
-0.77962560916510149
20
-1.4152389811718558
10
-0.93687481767549285
20
-1.2490358878308392
0
LINE
5
193
100
AcDbEntity
8
0
100
AcDbLine
10
-0.24210925646654263
20
-0.92769767355731148
30
0
11
-0.25118429829755168
21
-1.4336983988604206
31
0
0
LINE
5
194
100
AcDbEntity
8
0
100
AcDbLine
10
-0.47138816728366639
20
-0.68407007089750027
30
0
11
-0.24210925646654263
21
-0.92769767355731148
31
0
0
LINE
5
195
100
AcDbEntity
8
0
100
AcDbLine
10
-0.25118429829755168
20
-1.4336983988604206
30
0
11
-0.51355549669641209
21
-1.4336983988604206
31
0
0
LINE
5
196
100
AcDbEntity
8
0
100
AcDbLine
10
-0.47138816728366639
20
-0.68407007089750027
30
0
11
-0.48574054335045996
21
-0.50493347363209162
31
0
0
LINE
5
197
100
AcDbEntity
8
0
100
AcDbLine
10
-0.48544528916126156
20
-0.50493347363209162
30
0
11
-0.48574054335045996
21
-0.50493347363209162
31
0
0
LINE
5
198
100
AcDbEntity
8
0
100
AcDbLine
10
-0.51355549669641209
20
-1.4336983988604206
30
0
11
-0.58722876188323248
21
-0.36838284627659112
31
0
0
LINE
5
199
100
AcDbEntity
8
0
100
AcDbLine
10
-0.48544528916126156
20
-0.50493347363209162
30
0
11
-0.087204687004014347
21
-0.81993857706625628
31
0
0
LINE
5
200
100
AcDbEntity
8
0
100
AcDbLine
10
-0.087204687004014347
20
-0.81993857706625628
30
0
11
-0.071202558795298174
21
-1.6032472370177742
31
0
0
LINE
5
201
100
AcDbEntity
8
0
100
AcDbLine
10
-0.58722876188323248
20
-0.36838284627659112
30
0
11
-0.668166941545141
21
-0.18275113790992678
31
0
0
LINE
5
202
100
AcDbEntity
8
0
100
AcDbLine
10
-0.071202558795298174
20
-1.6032472370177742
30
0
11
-0.67866299096054927
21
-1.5902350268026035
31
0
0
LINE
5
203
100
AcDbEntity
8
0
100
AcDbLine
10
-0.668166941545141
20
-0.18275113790992678
30
0
11
-0.6775377772924468
21
0.032767515600196959
31
0
0
LINE
5
204
100
AcDbEntity
8
0
100
AcDbLine
10
-0.67866299096054927
20
-1.5902350268026035
30
0
11
-0.72617558982428598
21
-0.4521098193221203
31
0
0
LINE
5
205
100
AcDbEntity
8
0
100
AcDbLine
10
-0.67696779054600598
20
0.032785426707862247
30
0
11
-0.76152166043679537
21
0.030128429020483662
31
0
0
LINE
5
206
100
AcDbEntity
8
0
100
AcDbLine
10
-0.72617558982428598
20
-0.4521098193221203
30
0
11
-0.75566773339519344
21
-0.1847764521133243
31
0
0
LINE
5
207
100
AcDbEntity
8
0
100
AcDbLine
10
-0.75566773339519344
20
-0.1847764521133243
30
0
11
-0.76152166043679537
21
0.030128429020483662
31
0
0
LWPOLYLINE
5
208
100
AcDbEntity
8
0
100
AcDbPolyline
90
4
70
1
43
0.0
10
-0.44333662573746807
20
-0.86918506096667181
10
-0.34444550360281634
20
-0.96807357833141405
10
-0.33880866418673294
20
-1.3639023923498439
10
-0.44042796600522016
20
-1.3636358140960452
0
LWPOLYLINE
5
209
100
AcDbEntity
8
0
100
AcDbPolyline
90
4
70
1
43
0.0
10
-0.10210996068368741
20
-0.70048622259004845
10
0.13255480471558456
20
-0.71212165937648975
10
0.0045816494723943052
20
-0.80228743590707852
10
-0.10240523833928145
20
-0.70048622259004845
0
LWPOLYLINE
5
210
100
AcDbEntity
8
0
100
AcDbPolyline
90
5
70
1
43
0.0
10
-0.8352826899430883
20
-0.23785759144880639
10
-1.1381735951881709
20
-0.57928463605445191
10
-1.1656523689510314
20
-0.23756393297450751
10
-1.1653570678290419
20
-0.23756393297450748
10
-0.8352826899430883
20
-0.23756231379321238
0
LWPOLYLINE
5
211
100
AcDbEntity
8
0
100
AcDbPolyline
90
9
70
1
43
0.0
10
-1.8223223723764492
20
-0.15306302646952355
10
-1.8223223723764492
20
0.1138907131247633
10
-2.020825551250788
20
0.1173111866778276
10
-2.0176971991231119
20
0.29185902415298098
10
-2.0174018980011224
20
0.29185902415298098
10
-1.5553689378453051
20
0.28843691968542384
10
-1.5553689378453051
20
0.021484019014779036
10
-0.86060593447347322
20
0.024906123482336208
10
-0.84349489587498472
20
-0.1393721680941544
0
ARC
5
212
100
AcDbEntity
8
0
100
AcDbCircle
10
-23.037842267387571
20
-0.551803140189704
30
0
40
24.753043923098346
210
0
220
0
230
1
100
AcDbArc
50
-0.30112511852708734
51
0
0
ARC
5
213
100
AcDbEntity
8
0
100
AcDbCircle
10
3173.324603992507
20
997.05191735766755
30
0
40
3326.344788857677
210
0
220
0
230
1
100
AcDbArc
50
197.39914725967353
51
197.40008746365652
0
ENDSEC
0
SECTION
2
OBJECTS
0
DICTIONARY
5
C
100
AcDbDictionary
3
ACAD_GROUP
350
D
3
ACAD_MLINESTYLE
350
17
0
DICTIONARY
5
D
100
AcDbDictionary
0
DICTIONARY
5
1A
330
C
100
AcDbDictionary
0
DICTIONARY
5
17
100
AcDbDictionary
0
ENDSEC
0
EOF
